<svg width="308" height="325" viewBox="0 0 308 325" fill="none" xmlns="http://www.w3.org/2000/svg">
<g clip-path="url(#clip0)">
<path d="M108.075 99.0569C107.775 99.0041 108.012 99.4167 108.075 99.0569V99.0569Z" fill="#020202"/>
<path d="M303.286 48.9399C304.072 47.9716 304.706 47.1611 305.239 46.5786L303.286 48.9399Z" fill="#020202"/>
<path d="M210.277 55.5655C210.277 55.5655 210.214 55.9233 210.151 56.2811C210.126 56.0355 210.169 55.7878 210.277 55.5655Z" fill="#020202"/>
<path d="M69.1755 133.216C70.2488 133.405 70.1582 134.618 70.0848 135.036C71.6599 135.866 72.2314 135.413 72.2695 134.498C71.1708 132.706 70.3647 133.794 69.1755 133.216Z" fill="#020202"/>
<path d="M10.9522 206.269L10.5205 205.578L10.9522 206.269Z" fill="#020202"/>
<path d="M237.434 143.335C237.393 143.512 237.361 143.691 237.339 143.872C237.339 143.872 237.441 143.644 237.434 143.335Z" fill="#020202"/>
<path d="M21.1715 195.711L18.7505 193.748C19.51 194.459 20.319 195.114 21.1715 195.711Z" fill="#020202"/>
<path d="M305.526 46.6908L306.35 45.8521C306.052 46.1081 305.777 46.3887 305.526 46.6908Z" fill="#020202"/>
<path d="M281.562 213.62L287.441 208.507C293.994 217.037 288.438 223.805 296.631 230.349L295.021 230.066C293.692 231.676 309.911 227.891 294.352 246.792L293.644 246.975C293.879 247.385 295.254 247.258 293.392 248.406L297.087 244.876C299.269 245.752 303.049 245.925 303.948 247.805C302.976 248.482 301.889 248.979 300.74 249.269L303.12 253.56L298.916 256.14C301.778 256.644 311.25 253.823 306.844 258.949C313.232 255.832 311.376 259.747 314.661 258.542C313.851 258.953 312.74 259.679 311.709 260.297C312.511 261.839 313.636 263.191 315.008 264.26C316.379 265.328 317.964 266.089 319.656 266.491C325.464 260.495 331.684 254.913 338.271 249.787C337.291 253.61 339.32 250.463 341.382 249.228L339.628 249.411C340.795 246.973 344.975 245.926 345.985 244.382L344.817 244.73L345.413 244.835C344.868 245.072 344.282 245.199 343.688 245.207C342.78 245.478 342.032 245.531 342.137 244.934L342.614 245.018C341.814 244.324 342.098 242.714 342.224 241.999L345.766 241.085C338.706 241.38 353.317 228.213 352.899 226.049C356.741 222.73 350.459 221.747 351.941 218.565C351.862 214.125 356.443 214.993 358.809 212.028C360.242 208.776 354.871 213.794 354.362 212.844L358.305 208.251C359.246 209.892 361.062 208.306 362.303 207.541C362.07 204.672 367.114 198.367 359.915 199.805C362.097 195.086 364.832 194.215 364.639 192.521C363.555 193.437 362.746 194.893 361.378 195.329C363.958 192.893 360.365 195.15 359.902 195.684C356.229 194.546 368.813 179.977 360.881 182.086L362.259 181.59C357.572 183.406 352.669 184.61 347.674 185.171L349.851 183.28L346.87 182.755C347.89 181.679 349.249 180.985 350.72 180.789C347.24 179.255 349.145 174.365 348.684 171.394L334.702 179.938C337.323 176.219 342.763 169.061 337.685 170.32L342.225 166.877C349.919 158.087 336.409 164.993 338.796 161.909L343.318 157.172L344.221 159.728C345.84 156.543 347.85 153.572 350.203 150.883C350.019 151.145 349.77 151.355 349.481 151.494L349.183 151.441C346.339 152.232 343.915 151.682 343.315 149.855C343.012 147.036 338.196 146.803 342.296 140.271L336.272 141.669L338.282 137.228L342.739 135.308C343.796 138.383 347.864 143.217 349.661 146.976L351.709 146.169C350.754 143.91 347.684 142.141 347.491 140.447C348.419 139.149 349.606 138.057 350.977 137.241C352.348 136.424 353.873 135.9 355.457 135.701L350.515 136.184C346.671 128.684 346.556 129.34 347.49 118.439L345.79 120.414C343.65 119.3 341.63 118.207 344.964 116.027C342.834 109.615 343.163 102.64 345.887 96.4561L340.484 98.5175C340.037 97.2095 346.207 90.7952 339.058 94.3937L335.276 93.175C334.935 92.3159 333.845 91.878 332.876 91.0929C332.293 90.661 331.876 90.0408 331.698 89.3372C331.519 88.6336 331.589 87.8898 331.896 87.2319L332.053 86.3375L331.99 86.6952C330.542 80.6003 328.05 89.8748 326.541 82.7242C328.282 78.4199 319.855 85.7893 318.797 82.714C320.122 80.0782 321.394 77.3922 322.613 74.6559C321.746 67.0035 315.569 72.064 309.58 67.3216C308.99 64.4032 309.314 61.3738 310.509 58.6466C311.704 55.9194 313.711 53.6273 316.257 52.0828C308.866 56.0076 312.06 54.9713 305.996 55.1953C306.264 54.0873 306.776 53.0533 307.495 52.1692C308.214 51.2852 309.123 50.5736 310.153 50.0867C308.064 44.4936 306.313 50.9478 303.535 48.922C300.625 53.2589 297.337 57.3297 293.71 61.0865L293.89 63.2083C289.727 64.5046 286.493 64.3659 284.31 60.3546L285.519 57.678C284.207 57.4472 282.832 57.5741 281.468 57.6414L282.487 53.9478L276.994 53.719L277.461 54.9077C276.149 54.6769 271.653 55.4226 269.744 52.9966L270.101 50.9692C269.058 49.4176 267.481 48.303 265.671 47.8371C263.86 47.3712 261.942 47.5864 260.279 48.4418C256.7 50.1608 252.977 51.5627 249.153 52.6314L250.108 48.2504C247.248 44.243 249.382 54.8234 246.074 53.0117L245.703 47.7826C243.09 54.9457 241.82 46.7919 239.332 44.5099L240.966 50.945L236.971 50.242C232.435 48.7677 232.972 42.2228 233.195 38.512C232.394 40.5022 231.647 42.4199 230.953 44.2651L229.263 38.4964C228.613 42.1934 228.146 42.0499 227.185 41.5733C226.224 41.0968 224.827 40.2979 223.952 42.4798C223.165 40.3127 223.666 38.864 222.378 38.1456C221.812 41.3655 220.919 44.3437 220.243 47.483L221.795 43.2069L223.599 51.8233C222.718 58.9225 219.986 51.7409 218.805 54.6069L219.246 52.1025C216.842 54.9376 215.728 51.4835 213.493 49.8607C214.465 51.3228 215.81 53.4651 214.951 54.8508C214.093 56.2366 213.673 51.9825 212.575 51.236C213.907 56.9417 212.681 60.4145 210.102 58.3009C209.897 57.5938 209.757 56.8696 209.684 56.1371C209.495 57.2104 209.661 58.7149 208.436 57.6388L207.1 51.2563L207.303 57.4395C205.703 56.0514 205.558 61.0668 204.381 56.9253L204.591 55.7328L196.528 56.8345L194.811 51.9217C196.21 58.9916 189.444 50.9774 192.615 59.1582C189.517 55.1089 187.869 64.4706 185.35 54.6831C179.714 55.966 180.27 66.0842 172.237 63.8715C166.846 56.7755 161.564 61.9934 157.155 62.939C150.723 69.7989 147.092 75.0616 140.635 81.3638C130.474 73.4284 131.072 90.9924 123.007 87.9135L124.048 92.8302C117.052 88.2181 116.815 98.996 108.585 95.4577C108.705 96.6982 108.589 97.9502 108.243 99.1475C108.542 99.2 109.363 99.7748 111.072 102.289C108.722 101.322 107.612 105.184 104.523 100.03L104.649 99.3142C101.56 94.16 102.385 104.141 98.2451 100.769L102.611 105.656L99.6682 106.307L99.6114 104.883C98.4726 114.149 94.2892 115.565 89.7303 116.668C88.3456 116.647 86.9716 116.913 85.6955 117.451C84.4194 117.989 83.269 118.786 82.3173 119.792C81.3657 120.798 80.6336 121.991 80.1676 123.295C79.7015 124.599 79.5117 125.986 79.6101 127.367C76.4853 120.67 80.1488 131.642 75.2252 125.735C66.8856 120.026 72.3236 130.696 72.2131 134.119C72.5169 134.481 72.7772 134.877 72.9888 135.3L69.3176 137.298C64.7608 128.258 72.3203 145.387 68.6479 137.61C55.7244 139.086 50.3832 154.068 39.5139 160.639L41.6716 162.002C39.1754 163.961 38.6832 168.854 34.1233 167.867C29.5634 166.88 35.3338 176.01 35.0467 176.943C36.6063 181.705 28.7376 177.862 29.6983 177.293C28.7563 180.201 33.9824 187.883 28.5042 188.271C21.1965 184.035 28.395 201.469 21.0409 195.749L21.6234 196.282C13.3532 196.117 19.4609 206.475 11.6998 207.261L10.833 206.248C16.4043 214.646 22.1369 222.827 28.0306 230.79L55.2756 246.096C63.706 248.727 72.0219 251.543 80.2234 254.544C82.4509 248.173 85.194 242.017 87.9581 235.741C93.9968 233.914 99.618 232.014 105.702 230.626C113.434 220.7 121.805 211.289 130.762 202.453L128.447 195.345C130.709 196.392 133.276 196.577 135.665 195.866C138.054 195.154 140.101 193.595 141.422 191.481C144.447 188.263 147.22 184.386 153.06 185.783L149.831 180.727C151.577 179.19 153.539 182.363 154.549 182.91C158.749 179.653 162.812 176.126 167.083 172.82C171.197 169.249 175.5 165.902 179.974 162.794C188.261 156.523 198.238 152.882 208.616 152.342C211.774 155.357 216.17 151.335 218.886 154.764C220.001 151.406 222.102 148.461 224.914 146.313C227.726 144.166 231.119 142.914 234.653 142.723L234.453 143.856C235.256 143.136 236.087 142.606 236.939 141.957C237.215 142.46 237.39 143.013 237.452 143.584C237.574 143.018 237.81 142.483 238.147 142.012C238.484 141.54 238.913 141.143 239.409 140.845C239.905 140.546 240.457 140.352 241.031 140.275C241.605 140.198 242.189 140.24 242.746 140.397C244.893 140.775 248.657 141.744 248.447 142.937L248.342 143.533C249.475 143.732 250.943 140.978 253.724 140.546C254.32 140.399 254.946 140.434 255.522 140.645C256.098 140.856 256.598 141.233 256.958 141.73C257.144 141.981 257.268 142.273 257.321 142.581C257.373 142.889 257.353 143.205 257.261 143.504C257.951 145.566 258.38 147.707 258.537 149.876C256.341 156.068 258.959 159.356 262.876 165.394C265.147 167.949 266.874 170.939 267.952 174.184C269.03 177.428 269.436 180.857 269.146 184.263C264.757 188.593 278.292 211.938 281.562 213.62Z" fill="#020202"/>
<path d="M300.929 249.241C298.425 249.845 299.432 249.715 300.929 249.241V249.241Z" fill="#020202"/>
<path d="M198.145 290.109C223.865 294.635 248.383 277.453 252.909 251.734C257.435 226.014 240.254 201.495 214.534 196.969C188.814 192.443 164.295 209.624 159.769 235.344C155.244 261.064 172.425 285.583 198.145 290.109Z" fill="#020202"/>
<path d="M248.996 250.922C249.532 251.016 250.665 251.216 250.49 250.816L248.522 250.47L248.996 250.922Z" fill="#020202"/>
<path d="M252.995 248.798C251.697 247.931 250.154 247.508 248.596 247.594C250.451 248.228 249.645 248.27 251.848 249.027C251.774 249.444 251.126 249.637 250.41 249.511C250.947 249.606 249.877 250.094 251.098 250.493C252.319 250.892 252.879 249.454 251.434 248.585C251.964 248.52 252.501 248.593 252.995 248.798Z" fill="#020202"/>
<path d="M242.033 208.386L241.97 208.743C242.036 208.637 242.059 208.509 242.033 208.386Z" fill="#020202"/>
<path d="M218.522 193.86C218.625 193.863 218.725 193.829 218.804 193.763C218.884 193.698 218.937 193.606 218.953 193.505C218.953 193.505 218.554 193.681 218.522 193.86Z" fill="#020202"/>
<path d="M214.152 190.755C214.152 190.755 214.244 190.585 214.152 190.755V190.755Z" fill="#020202"/>
<path d="M242.033 208.386L242.201 207.432C241.451 207.853 241.847 208.046 242.033 208.386Z" fill="#020202"/>
<path d="M248.468 243.083C248.638 243.155 248.821 243.188 249.005 243.178L248.468 243.083Z" fill="#020202"/>
<path d="M250.813 217.184L251.591 216.953L250.813 217.184Z" fill="#020202"/>
<path d="M255.204 225.764C255.204 225.764 253.56 226.028 252.851 226.211C253.507 226.326 253.865 226.389 254.103 226.431L255.204 225.764Z" fill="#020202"/>
<path d="M247.182 211.259L247.624 210.845L247.182 211.259Z" fill="#020202"/>
<path d="M253.386 251.817L253.424 251.947L254.368 252.174L253.386 251.817Z" fill="#020202"/>
<path d="M152.062 245.607C153.524 244.635 154.139 247.079 155.696 245.57C155.047 245.763 152.949 244.41 152.062 245.607Z" fill="#020202"/>
<path d="M248.688 242.876C248.69 242.775 248.708 242.674 248.741 242.578C248.741 242.578 248.639 242.806 248.688 242.876Z" fill="#020202"/>
<path d="M183.924 193.796L184.437 194.378C184.307 194.151 184.133 193.953 183.924 193.796Z" fill="#020202"/>
<path d="M177.878 199.863L177.401 199.779C177.401 199.779 177.53 199.741 177.878 199.863Z" fill="#020202"/>
<path d="M232.021 274.369L233.256 275.386C232.368 274.492 232.834 273.59 232.021 274.369Z" fill="#020202"/>
<path d="M185.031 211.265L184.053 211.585C184.401 211.565 184.739 211.455 185.031 211.265Z" fill="#020202"/>
<path d="M188.652 279.771C188.652 279.771 188.804 279.612 188.652 279.771V279.771Z" fill="#020202"/>
<path d="M181.865 213.536C181.515 213.26 181.109 213.062 180.675 212.958L180.612 213.316L181.865 213.536Z" fill="#020202"/>
<path d="M235.087 267.778C234.424 268.399 236.435 269.552 237.301 270.565C237.071 271.877 235.705 269.854 234.614 269.416C234.457 270.31 235.724 272.193 235.244 272.477C234.962 272.316 234.728 272.084 234.563 271.804C235.234 273.582 232.985 273.432 233.87 275.74L233.393 275.656C234.161 276.356 234.87 277.118 235.513 277.934C235.45 278.292 235.717 279.569 234.601 278.573C234.601 278.573 234.706 277.977 234.352 277.546L234.215 278.321C232.545 276.982 234.383 277.367 233.309 276.133C233.121 277.206 233.181 279.307 232.206 279.258C230.887 277.674 233.166 277.645 231.293 276.762L232.605 276.992C229.956 274.928 233.254 276.799 230.517 274.535C229.111 274.841 230.192 276.383 228.487 276.637C228.845 277.745 229.54 277.99 229.898 279.098C229.395 281.96 225.79 275.547 226.082 278.427C226.458 279.784 227.522 282.123 225.926 281.411L225.083 278.866C223.785 279.252 225.909 282.208 223.885 281.483C223.744 280.536 224.522 280.304 224.126 280.111C222.505 278.842 223.874 281.542 223.432 281.956L222.463 280.126C221.282 280.902 220.357 283.013 218.807 283.786C218.912 283.19 219.027 282.534 218.266 281.969C216.629 283.587 213.988 282.876 212.125 281.934L211.789 283.842C211.789 283.842 211.368 283.092 211.49 282.744C210.68 282.11 211.302 283.818 211.176 284.533C211.05 285.249 210.488 283.551 210.701 283.036C209.622 284.629 206.996 286.626 205.571 284.592L205.666 284.055C204.627 283.319 204.229 287.676 203.299 285.975L203.362 285.617C201.012 284.65 197.964 285.897 196.739 282.73C195.762 285.14 194.753 281.09 193.608 284.454C192.821 282.287 193.393 281.834 191.975 280.109C191.498 280.025 190.485 281.937 189.738 281.99L190.47 280.275L188.924 281.724L189.323 279.458L188.615 279.641C188.673 279.884 188.681 280.137 188.638 280.383C188.595 280.629 188.501 280.864 188.363 281.072C187.125 281.469 186.829 278.958 187.355 278.067L184.724 278.342C185.138 277.738 185.576 277.693 186.116 277.419C184.146 278.486 186.978 275.665 185.148 276.634C184.922 277.08 184.622 277.484 184.261 277.83C184.283 277.577 184.253 277.323 184.174 277.082C184.095 276.841 183.968 276.619 183.8 276.428C183.632 276.238 183.428 276.083 183.199 275.974C182.97 275.865 182.721 275.804 182.468 275.793L183.372 274.846C182.278 273.731 180.45 273.286 179.057 272.119C178.91 272.954 177.522 274.554 176.947 274.33L178.145 272.758C177.045 273.425 177.988 273.652 176.47 274.246C176.098 273.566 177.731 272.316 178.44 272.134L177.426 271.955C177.51 271.478 178.138 271.404 178.709 270.951C177.619 271.559 179.129 268.566 177.327 269.725L177.709 269.3C176.505 268.105 175.583 267.758 174.597 266.724C173.194 267.706 173.19 267.03 171.763 267.455C171.615 266.199 172.288 264.473 171.242 263.429C170.196 262.384 169.864 263.924 168.738 264.033C170.05 263.219 169.084 262.065 170.656 262.219C169.822 261.007 168.747 259.98 167.498 259.204C166.986 259.667 166.804 260.004 166.295 260.099C165.787 260.194 166.484 259.026 167.322 258.804C164.14 257.322 169.957 252.567 166.47 251.769L164.463 250.248C164.62 249.354 165.715 250.468 166.508 249.809C163.526 248.239 166.566 246.684 164.668 245.243C169.198 243.95 164.29 240.751 167.509 239.227L166.436 239.038C165.425 238.491 167.126 238.606 167.428 238.29C166.593 238.143 166.39 238.6 165.937 238.028C165.048 233.999 168.999 230.76 171.274 227.963C172.069 226.935 166.523 224.914 169.564 224.404L171.164 225.792C171.027 225.059 171.054 224.304 171.245 223.582C171.436 222.861 171.785 222.191 172.267 221.621C173.328 220.578 173.968 219.181 174.064 217.696C174.299 218.106 174.783 218.499 174.622 218.716C176.113 218.979 176.059 217.186 175.042 216.331C175.4 216.394 175.912 216.976 176.557 217.151C177.203 217.326 176.111 214.798 177.388 215.576C177.388 215.576 177.325 215.934 177.592 216.165C177.858 216.396 179.004 215.123 177.58 214.134C178.885 214.057 178.533 212.212 179.785 212.432C179.055 210.644 181.76 212.042 180.236 209.868C181.868 212.123 182.979 210.351 182.821 209.155C183.112 209.944 183.835 209.333 184.211 210.69C184.771 210.297 185.097 209.494 184.251 208.362C186.96 210.437 185.449 204.699 188.116 208.058C189.253 205.935 190.88 204.114 192.863 202.746C193.586 205.271 190.783 203.732 191.844 206.439C193.144 204.64 193.683 202.275 195.714 202.264C196.31 202.369 195.504 203.456 195.42 203.933C197.047 202.375 199.078 203.409 200.536 201.76C200.574 202.026 200.526 202.298 200.4 202.535C200.698 202.588 201.234 202.682 201.044 201.665L200.971 202.082C200.17 200.343 202.021 198.21 201.821 197.252C201.202 200.771 203.715 198.016 202.977 202.558C203.273 202.055 203.378 201.463 203.271 200.889C203.629 200.952 203.763 201.59 203.465 202.583C204.646 201.807 204.19 200.559 205.354 200.579C205.303 201.102 205.211 201.62 205.082 202.129C205.649 201 206.227 199.811 207.238 200.357C207.175 200.715 207.091 201.192 207.091 201.192C208.665 200.977 210.183 198.294 211.972 199.653C211.033 202.193 212.481 200.604 212.212 202.831L213.282 202.343L214.063 201.743C214.898 201.89 215.995 200.546 216.575 201.447L215.761 202.226L217.434 202.151L216.757 201.11C217.9 200.205 217.25 198.308 218.387 199.184C218.387 199.184 219.341 199.352 219.377 200.895C220.029 200.333 220.681 199.772 221.162 200.533C221.642 201.294 220.265 202.834 220.17 203.371C221.19 201.767 222.257 203.738 223.509 201.868C223.123 202.376 222.835 202.95 222.657 203.562L223.554 202.306C223.449 202.903 223.407 203.141 223.25 204.036C224.218 204.821 223.754 201.173 224.852 202.965C224.852 202.965 224.8 203.263 224.351 203.369C225.435 204.543 227.392 203.904 228.238 205.036C227.481 207.239 226.986 204.816 226.44 206.871C228.228 207.186 231.3 206.497 232.402 207.921L232.465 207.563C234.548 205.163 232.715 209.635 234.364 209.003C234.065 208.951 233.049 210.186 233.27 209.979C233.856 211.189 235.729 211.026 237.893 211.653L236.866 211.903C236.677 212.976 237.915 213.624 238.196 214.473C238.996 214.122 239.15 214.641 239.897 213.543C239.039 215.973 240.109 216.531 241.438 217.01C242.768 217.49 244.087 218.03 243.053 220.061C243.053 220.061 242.099 219.893 242.278 219.925L243.909 221.134C245.042 220.288 244.512 220.502 245.227 219.583C245.555 219.449 245.913 219.411 246.261 219.472C246.609 219.534 246.933 219.692 247.195 219.929C245.883 219.698 245.274 221.066 244.72 221.768C244.772 221.47 245.53 221.357 245.88 221.112C244.159 223.206 248.43 219.9 247.624 222.033L246.965 222.286C247.561 222.391 248.634 222.58 248.708 223.208C247.376 224.141 247.754 223.04 246.555 223.566C246.997 224.198 250.097 223.698 248.871 225.08C248.334 224.986 248.179 224.467 247.583 224.362C246.216 225.843 246.605 225.727 246.549 226.393L246.277 227.944L246.371 227.407C250.657 226.809 247.88 228.964 250.812 229.418C247.95 228.914 249.297 229.643 247.551 230.135C247.158 230.619 246.745 231.223 246.187 231.248C247.737 231.52 245.349 232.514 247.647 232.734C247.11 232.64 247.542 233.33 246.265 233.597C246.957 234.211 247.195 233.208 247.952 233.095C250.274 233.873 246.091 236.333 249.136 237.545C250.438 238.881 252.378 239.038 253.539 240.472C252.638 241.051 251.393 240.094 251.393 240.094C250.569 240.932 250.832 241.532 251.502 242.265C250.94 242.175 250.364 242.267 249.858 242.529C249.763 243.065 252.004 242.906 251.121 243.735C250.316 243.656 249.519 243.516 248.736 243.315C249.238 243.956 250.336 244.703 250.876 245.474C249.87 245.604 249.266 245.191 248.673 244.718C248.871 245.286 249.194 245.803 249.62 246.229C250.045 246.655 250.561 246.98 251.13 247.179L251.771 246.677C251.771 246.677 250.4 246.435 250.102 246.383C248.824 245.605 250.697 245.443 251.255 245.418L251.648 245.979C255.095 245.602 251.11 243.794 251.348 242.791L253.853 243.232L251.772 242.128C252.432 241.875 253.817 241.688 254.22 242.19C255.472 241.365 253.291 241.534 254.472 240.759C254.542 240.733 254.618 240.727 254.691 240.739C254.764 240.752 254.833 240.784 254.89 240.832L254.1 240.078C254.637 240.173 255.864 239.836 255.531 240.33C256.86 238.72 253.45 238.181 255.309 237.402C254.221 235.551 253.468 237.385 251.079 236.289L255.374 234.585L253.512 234.688C253.512 234.688 253.627 234.032 254.374 233.979C252.943 233.727 253.585 234.271 252.333 234.05C253.858 232.72 251.031 231.67 253.776 230.739C252.345 230.487 252.96 231.886 251.732 231.178C254.699 230.04 250.865 230.165 252.131 228.912C253.765 228.708 253.208 229.778 254.294 228.494C251.534 228.807 254.63 226.586 253.571 225.969C251.474 226.707 252.069 224.721 250.943 223.785C251.721 223.553 250.987 221.088 251.13 219.576L251.428 219.629C249.321 220.426 249.162 219.23 248.292 218.585C248.648 218.323 249.053 218.135 249.483 218.031C249.913 217.927 250.359 217.91 250.796 217.981L250.315 217.22C250.033 217.305 249.735 217.323 249.445 217.272C249.155 217.221 248.881 217.103 248.646 216.926L250.174 216.273C249.427 215.281 247.326 215.342 247.343 213.5C246.021 214.374 244.475 216.869 242.788 216.326C243.44 215.764 244.573 214.919 245.05 215.002C245.527 215.086 244.215 214.856 244.274 214.866L245.81 214.522C245.968 213.627 244.632 214.929 244.439 214.28C245.421 213.592 244.596 213.386 245.655 212.957C246.714 212.529 245.54 213.613 246.048 213.518C245.943 213.114 245.926 212.692 245.998 212.28C246.07 211.868 246.231 211.477 246.468 211.133C245.956 211.596 245.185 212.137 244.799 211.885C244.413 211.632 245.686 210.688 245.734 209.713C244.945 210.005 245.075 208.921 243.711 210.033C243.711 210.033 243.868 209.139 244.359 208.795C243.405 208.627 242.236 206.885 241.364 208.698C238.919 208.268 239.146 205.234 237.181 204.52L237.276 203.983C235.964 203.752 234.967 202.778 233.579 203.332C233.579 203.332 233.809 202.021 233.914 201.424C232.901 201.246 232.568 201.741 231.964 200.282C233.272 199.836 232.132 199.328 233.16 200.124C232.423 199.072 232.65 198.128 230.732 198.897C231.847 197.802 231.099 196.81 230.163 196.891L230.349 198.277C229.77 198.144 229.244 197.837 228.844 197.397L230.054 195.766C228.789 192.469 224.373 197.655 224.343 193.285C223.228 194.38 225.276 194.618 223.87 195.968C222.99 195.383 222.799 192.276 222.452 192.153C221.251 190.59 220.201 194.462 218.868 193.305C218.742 194.021 218.406 195.929 217.287 196.347C216.326 195.871 216.69 193.107 217.559 192.706C218.429 192.306 217.917 192.769 217.844 193.187C217.77 193.604 218.832 192.807 218.551 191.959L218.426 192.674C218.085 191.815 216.535 191.542 217.151 190.483C216.141 190.981 216.535 191.542 216.879 192.033C215.696 190.719 214.672 191.645 213.318 190.608C213.255 190.965 213.585 191.884 213.108 191.8C211.098 190.647 211.972 193.014 210.527 193.19C209.811 192.019 210.979 190.626 209.559 191.36C208.72 190.536 209.526 189.449 209.989 188.915C208.495 190.066 207.4 187.906 206.597 187.581L207.368 187.04C207.01 187.279 206.577 187.377 206.151 187.318L206.576 188.745C206.099 188.661 205.741 188.598 205.808 187.872C205.64 188.826 206.124 190.264 205.167 191.509C204.617 190.798 203.498 192.261 203.277 190.378C205.073 191.001 203.006 188.424 204.591 188.15C204.413 188.23 204.216 188.254 204.025 188.221C203.833 188.187 203.657 188.096 203.517 187.961C203.477 187.872 203.465 187.774 203.482 187.678C203.499 187.582 203.544 187.494 203.612 187.424C201.745 185.805 202.855 189.627 201.123 189.691C201.312 188.618 200.554 187.685 200.263 187.941C200.978 188.067 200.754 189.688 200.169 190.568C198.952 189.801 198.998 191.285 198.451 191.25L199.167 191.376C198.978 192.449 198.501 192.365 197.799 192.856C197.638 192.029 198.413 192.165 197.978 191.843C197.621 193.87 195.802 190.23 194.804 191.714C194.112 191.101 194.354 189.73 193.74 189.376C192.66 190.968 191.908 188.254 190.72 189.766C191.475 191.067 191.478 190.699 190.886 192.316L192.892 190.702L191.974 193.122C192.57 193.227 193.19 191.799 193.646 192.003C193.416 193.314 193.468 193.016 193.788 193.995C192.391 192.151 192.319 195.703 190.975 194.606L191.209 191.881C188.999 190.816 188.846 194.478 186.577 194.447L187.471 194.605C187.707 196.06 186.311 195.261 185.866 196.043C185.549 195.256 185.004 194.582 184.301 194.108C184.711 194.918 182.772 194.761 183.786 197.03L182.222 196.14C180.328 196.421 182.038 199.98 180.53 200.514C180.284 199.118 179.172 198.8 179.662 197.411C179.182 197.695 178.614 197.779 179.035 198.53C178.372 198.106 178.647 200.736 177.538 200.049C177.444 200.586 178.289 201.718 177.7 201.922C177.51 201.788 177.352 201.613 177.237 201.41C177.521 201.891 177.017 202.662 178.115 203.409C174.649 201.447 174.595 206.294 171.69 204.983C171.089 206.11 170.386 207.18 169.591 208.179C169.591 208.179 169.177 207.738 169.664 207.762C167.82 208.114 171.588 210.805 169.554 211.185C167.467 210.818 169.367 209.8 168.452 209.762C165.368 207.375 167.45 211.614 165.016 211.124L165.078 210.767C163.528 210.494 164.975 213.453 163.94 214.439C163.768 214.378 163.587 214.346 163.404 214.345C164.161 215.99 164.354 217.839 163.953 219.605C162.799 218.48 163.564 218.676 162.066 218.105C161.95 218.761 164.336 219.181 164.115 220.433C162.916 220.588 161.697 220.478 160.545 220.112C160.608 219.754 160.681 219.337 160.744 218.979C158.478 218.58 160.064 220.396 159.503 220.79L158.672 220.274C158.347 222.123 160.329 223.086 159.418 224.77L160.133 224.896C161.909 226.684 158.597 225.241 159.797 226.804L157.412 226.385C158.066 227.75 158.577 229.179 158.937 230.649C157.354 229.51 157.031 227.854 156.325 226.624C156.199 227.339 155.905 229.009 156.716 229.643C156.716 229.643 156.126 228.802 156.586 228.637C158.066 230.004 158.772 231.235 158.422 232.525C153.974 231.251 156.452 235.683 152.924 236.169C154.234 238.858 151.626 241.104 151.946 244.173C155.579 243.091 151.799 245.007 155.703 244.834C155.956 245.493 155.914 245.731 155.535 245.788L153.495 247.949C152.474 248.507 152.614 247.364 151.766 247.645C151.493 249.195 150.275 248.428 149.339 249.554C150.626 249.227 151.248 249.89 150.831 250.862L152.436 249.423C154.51 251.263 149.579 251.686 151.712 253.537L150.4 253.306C151.267 254.32 151.129 257.553 154.352 257.752C153.991 258.057 153.1 258.576 152.686 258.135C152.929 260.944 157.472 262.727 156.586 264.968L155.699 265.12C156.176 265.204 157.488 265.434 156.993 266.147C156.499 266.859 156.096 266.358 156.124 266.547C156.152 266.736 158.151 266.904 157.983 267.858L156.85 267.658C156.954 270.566 160.86 270.024 162.352 271.331C161.583 271.808 161.001 272.534 160.705 273.389C160.409 274.244 160.417 275.175 160.727 276.025C162.345 278.707 165.649 278.797 168.266 279.995C167.31 283.331 171.586 284.882 173.032 287.842C173.137 287.245 174.361 286.231 174.908 286.266C175.455 286.301 177.391 285.781 175.94 287.739C174.994 289.97 176.474 290.292 177.355 290.877L179.17 288.246C179.136 290.883 180.932 291.506 182.542 291.79C184.152 292.073 185.703 292.346 185.595 294.356C186.475 293.896 187.289 294.162 188.12 293.632L187.468 295.238C188.84 296.274 190.485 296.884 192.201 296.993L191.394 298.081C192.706 298.312 194.202 293.657 195.285 293.786L194.834 296.35C196.921 296.717 198.929 299.284 201.334 297.494C201.271 297.852 201.145 298.567 200.766 298.623C201.78 298.802 204.79 300.561 204.543 297.075C204.512 299.344 206.808 297.474 207.934 296.319L207.64 297.989C208.586 295.758 208.561 295.2 209.851 294.505C210.209 294.568 210.238 295.802 209.694 295.399C210.841 296.216 210.356 293.733 211.752 294.532L211.553 295.665C212.626 295.854 212.503 295.156 212.923 293.816C213.344 292.476 214.951 294.173 215.418 295.361C215.575 294.467 215.816 293.096 216.441 293.39C216.487 293.582 216.492 293.782 216.458 293.977C216.424 294.172 216.35 294.357 216.242 294.523C218.304 295.378 218.415 291.954 220.025 293.283C220.104 293.609 220.262 293.912 220.485 294.163C219.673 294.454 218.815 294.595 217.953 294.578C218.298 296.114 219.543 296.026 219.133 298.351C219.873 296.945 220.755 294.026 222.106 294.387L222.39 294.867C222.688 294.919 222.867 294.951 223.021 294.425C223.352 294.592 223.726 294.658 224.094 294.614C224.691 295.764 225.645 294.886 226.255 294.563C225.612 292.975 226.528 293.013 225.184 291.916C225.184 291.916 225.184 291.916 225.1 292.393L223.76 293.018C223.928 292.064 224.086 291.17 225.015 291.825L224.772 289.016C226.397 290.961 228.323 291.546 229.158 292.738C230.388 290.988 232.853 290.253 232.115 287.111C232.231 286.455 233.077 287.588 233.512 287.91C233.947 288.233 233.396 288.566 233.323 288.983C233.554 287.672 235.749 287.074 234.682 285.104C236.292 285.387 235.23 287.229 236.506 285.917L236.689 286.625C239.133 287.055 239.451 284.898 239.777 283.049C240.102 281.201 240.427 279.353 243.212 279.597C242.905 279.656 242.586 279.6 242.318 279.439C246.883 277.599 246.617 271.774 251.334 269.776C252.515 269 251.606 268.225 250.761 267.093L252.497 267.706L251.142 265.623C250.355 263.456 256.666 264.628 254.665 261.325L253.413 261.105C253.907 260.393 253.506 258.478 254.825 259.017C254.825 259.017 253.706 258.39 254.404 258.267L255.358 258.435C255.051 257.634 254.696 256.853 254.294 256.096C255.321 254.801 257.897 257.283 258.604 255.01C258.463 254.063 256.41 252.104 255.702 252.286C254.994 252.469 254.899 253.006 254.005 252.848L253.468 251.709C250.992 250.704 248.253 250.546 245.678 251.26L247.148 252.687L245.777 252.446L245.934 251.551C244.549 251.738 245.798 252.326 246.261 252.838C245.751 252.729 245.222 252.741 244.718 252.874L247.061 254.577C245.988 254.389 245.09 253.554 244.259 254.084C245.287 254.88 246.763 254.525 247.293 255.356C245.918 255.483 244.968 254.947 245.785 255.89C245.259 255.829 244.777 255.568 244.438 255.161C245.108 255.894 244.197 256.532 245.653 257.342C244.102 257.069 245.327 259.19 242.928 258.153C243.524 258.258 244.486 259.78 244.392 260.317C241.872 258.214 243.501 261.881 240.481 260.182C242.793 262.064 240.468 262.7 241.307 264.569C241.307 264.569 240.784 264.047 240.974 264.018C241.163 263.99 239.599 264.145 238.971 264.219C240.95 265.551 240.751 266.684 241.625 268.006C239.239 267.586 239.642 265.997 237.67 264.974C239.263 266.054 238.447 267.201 239.924 267.891C238.988 267.812 238.091 267.484 237.324 266.942C239.577 268.814 237.198 267.657 238.518 269.242C236.789 268.938 236.223 267.609 236.312 268.854C235.284 269.103 235.087 267.778 235.087 267.778ZM219.151 284.277L219.568 284.35L219.151 284.277ZM217.205 284.856L218.092 284.705C218.306 285.235 218.44 285.873 218.191 285.89C217.942 285.908 217.798 285.33 217.135 284.905L217.205 284.856ZM225.448 294.606C225.375 295.023 224.912 294.512 224.733 294.48L225.304 294.027C225.344 294.234 225.369 294.444 225.378 294.655L225.448 294.606Z" fill="#020202"/>
<path d="M225.239 292.295L224.822 292.221L224.727 292.758L225.239 292.295Z" fill="#020202"/>
<path d="M190.911 279.861L190.778 280.268L191.069 280.012L190.911 279.861Z" fill="#020202"/>
<path d="M244.725 222.077C244.675 222.21 244.65 222.352 244.652 222.494L244.725 222.077Z" fill="#020202"/>
<path d="M246.556 226.702L246.399 227.596C246.503 227.31 246.557 227.007 246.556 226.702Z" fill="#020202"/>
<path d="M201.528 203.103C201.026 203.506 201.475 203.401 201.528 203.103V203.103Z" fill="#020202"/>
<path d="M219.169 200.674C218.932 200.903 218.669 201.104 218.387 201.274C218.653 201.505 218.881 201.607 219.169 200.674Z" fill="#020202"/>
<path d="M185.16 211.227L185.111 211.157L185.03 211.266L185.16 211.227Z" fill="#020202"/>
<path d="M217.563 201.067C217.602 201.139 217.657 201.2 217.723 201.247C217.789 201.294 217.865 201.326 217.945 201.34C218.025 201.354 218.107 201.35 218.186 201.329C218.264 201.307 218.336 201.268 218.398 201.214C218.398 201.214 217.843 200.871 217.563 201.067Z" fill="#020202"/>
<path d="M249.088 247.249L248.733 246.818C248.733 246.818 248.502 247.085 249.088 247.249Z" fill="#020202"/>
<path d="M248.764 240C248.701 240.358 247.551 240.955 247.955 241.456L248.432 241.54C247.488 241.313 249.817 240.309 248.764 240Z" fill="#020202"/>
<path d="M255.246 232.165L255.004 233.537C255.625 233.154 256.396 232.614 256.709 233.283C258.072 231.126 255.397 234.098 255.246 232.165Z" fill="#020202"/>
<path d="M254.92 227.374C255.411 228.076 255.839 227.044 256.217 226.988C255.463 226.732 255.284 226.701 254.92 227.374Z" fill="#020202"/>
<path d="M235.012 201.126L235.969 199.88C235.264 199.695 235.566 200.424 235.012 201.126Z" fill="#020202"/>
<path d="M225.789 204.974L225.6 206.047L226.477 204.911L225.789 204.974Z" fill="#020202"/>
<path d="M227.197 193.48L227.516 193.413L226.33 193.512L227.197 193.48Z" fill="#020202"/>
<path d="M171.401 202.78L172.762 204.127C172.916 203.6 171.618 201.897 171.401 202.78Z" fill="#020202"/>
<path d="M158.427 224.104C157.414 223.926 156.583 224.456 157.372 225.21C157.646 224.704 158.554 224.434 158.427 224.104Z" fill="#020202"/>
<path d="M178.768 290.88L177.989 291.111L179.143 291.192L178.768 290.88Z" fill="#020202"/>
</g>
<defs>
<clipPath id="clip0">
<rect width="348.495" height="268.213" fill="white" transform="translate(46.667 0.157593) rotate(9.97975)"/>
</clipPath>
</defs>
</svg>
