<svg width="231" height="77" viewBox="0 0 231 77" fill="none" xmlns="http://www.w3.org/2000/svg">
<g clip-path="url(#clip0)">
<path d="M22.2725 24.8958C22.1856 24.8958 22.2725 25 22.2725 24.8958V24.8958Z" fill="white"/>
<path d="M74.9478 1.02492C75.1215 0.712201 75.2605 0.451603 75.3821 0.260498L74.9478 1.02492Z" fill="white"/>
<path d="M84.9546 10.0416V10.1632C85.1283 10.0069 85.2499 9.86789 84.9546 10.0416Z" fill="white"/>
<path d="M48.9925 7.52271C48.9925 7.52271 48.9925 7.62694 48.9925 7.73118C48.9732 7.66303 48.9732 7.59086 48.9925 7.52271Z" fill="white"/>
<path d="M12.978 36.4835C13.2907 36.4835 13.3255 36.831 13.3255 36.9526C13.8119 37.109 13.9509 36.9526 13.9162 36.692C13.5166 36.2403 13.3429 36.5878 12.978 36.4835Z" fill="white"/>
<path d="M0.156359 60.0243L0 59.8506L0.156359 60.0243Z" fill="white"/>
<path d="M61.0318 30.9763C61.0291 31.0284 61.0291 31.0806 61.0318 31.1327C61.0318 31.1327 61.0492 31.0632 61.0318 30.9763Z" fill="white"/>
<path d="M2.5191 56.5322L1.7373 56.0979C1.9873 56.261 2.24855 56.4061 2.5191 56.5322Z" fill="white"/>
<path d="M75.4692 0.277971L75.6604 0C75.589 0.0871534 75.5251 0.180136 75.4692 0.277971Z" fill="white"/>
<path d="M90.5492 17.3733C90.3736 17.5027 90.2054 17.6419 90.0454 17.7902L90.5492 17.3733Z" fill="white"/>
<path d="M96.178 54.4996L96.4733 54.3433L95.8652 54.4649C95.9627 54.5108 96.0727 54.523 96.178 54.4996Z" fill="white"/>
<path d="M92.9639 27.797L93.2245 27.6754C93.3809 27.3801 93.2245 26.9805 92.877 26.5288L91.9736 27.0674L92.9639 27.797Z" fill="white"/>
<path d="M76.9979 48.6448L78.4051 46.9075C80.681 48.9923 79.4475 51.1813 82.0882 52.6233H81.6191C81.3238 53.1445 85.7192 51.2682 82.2619 57.3836L82.0708 57.4704C82.1577 57.5747 82.5399 57.4704 82.0708 57.8874L82.9395 56.706C83.5997 56.845 84.6768 56.706 85.0243 57.1924C84.7832 57.4324 84.5007 57.6266 84.1904 57.7658L85.0764 58.8603L84.0166 59.7984C84.8506 59.7984 87.387 58.5302 86.3968 60.198C88.0472 58.9993 87.7171 60.198 88.5858 59.6942C88.3773 59.8505 88.0993 60.1111 87.8387 60.337C88.1422 60.733 88.5274 61.059 88.968 61.2928C89.4087 61.5266 89.8946 61.6628 90.3926 61.6921C91.7357 59.7089 93.216 57.8222 94.8228 56.0458C94.7359 57.1751 95.1528 56.1848 95.674 55.7331L95.1876 55.8721C95.3961 55.125 96.5253 54.6212 96.7338 54.1348L96.4211 54.2911H96.5948C96.4527 54.3853 96.2932 54.4503 96.1257 54.4822C95.8825 54.6038 95.674 54.656 95.674 54.4822H95.813C95.5524 54.3259 95.5524 53.8568 95.5524 53.6483L96.5079 53.214C94.5274 53.6483 98.002 49.2008 97.7762 48.6101C98.697 47.4808 96.8728 47.5156 97.1334 46.5427C96.8902 45.2918 98.2279 45.3092 98.7491 44.3537C98.9923 43.3634 97.7241 45.0486 97.533 44.8054L98.419 43.3113C98.7665 43.7282 99.2008 43.1897 99.5135 42.9117C99.305 42.1125 100.417 40.0799 98.4537 40.8443C98.836 39.4023 99.5656 39.0201 99.4266 38.551C99.166 38.8638 99.0097 39.3155 98.6449 39.5066C99.2529 38.69 98.3495 39.5066 98.2453 39.6803C97.1508 39.5413 99.9826 34.7984 97.8457 35.7887L98.2105 35.5802C96.9762 36.3266 95.6507 36.9105 94.2668 37.3175L94.788 36.6747H93.9194C94.1542 36.3197 94.5037 36.056 94.9096 35.9277C93.8499 35.6671 94.1452 34.1904 93.8672 33.3738L90.3405 36.4836C90.8964 35.3022 92.0778 33.009 90.7053 33.6171L91.8172 32.4183C93.5545 29.5517 90.0799 32.1751 90.6011 31.1848L91.6435 29.6212L92.0257 30.2988C92.3249 29.3181 92.7451 28.3785 93.2765 27.5017C93.2374 27.5849 93.1776 27.6566 93.1028 27.7102H93.0159C92.2515 28.075 91.5392 28.0403 91.2786 27.5538C91.0528 26.772 89.6803 26.9457 90.5142 24.8957L88.8811 25.5906L89.2286 24.2355L90.3926 23.4711C90.8443 24.2877 92.2342 25.4517 92.9291 26.4246L93.4676 26.0945C93.0854 25.5038 92.1299 25.1563 91.9909 24.6872C92.1888 24.2743 92.47 23.9067 92.8168 23.6077C93.1637 23.3087 93.5686 23.0848 94.0062 22.9499L92.6337 23.3321C91.1744 21.4037 91.1744 21.5948 90.8964 18.4676L90.5142 19.1104C89.854 18.902 89.2286 18.6935 90.0625 17.9117C89.1418 16.2054 88.8879 14.2179 89.3502 12.3349L87.9256 13.1862C87.7345 12.8387 89.1591 10.7192 87.3175 12.0917L86.1883 11.9353C86.0493 11.7095 85.7192 11.64 85.4065 11.4662C85.2201 11.3732 85.0716 11.2186 84.9861 11.0287C84.9007 10.8387 84.8834 10.6251 84.9374 10.4239V10.1633V10.2675C84.2251 8.61705 83.9819 11.362 83.2001 9.41621C83.4781 8.11323 81.4628 10.615 81.0111 9.79842C81.2543 8.98768 81.4802 8.16535 81.6886 7.33143C81.0632 5.21191 79.5691 6.94922 77.6407 5.90683C77.3288 5.1114 77.2699 4.23913 77.472 3.40899C77.6741 2.57885 78.1273 1.83126 78.7699 1.2682C76.8763 2.74492 77.7275 2.29321 76.025 2.65805C76.0454 2.33163 76.1387 2.01395 76.2981 1.72833C76.4574 1.44272 76.6787 1.19644 76.9458 1.0076C76.0771 -0.469122 75.9034 1.44193 75.0173 1.0076C74.4108 2.37792 73.6841 3.69183 72.8457 4.93394L73.0021 5.52462C71.8902 6.09794 70.9694 6.21955 70.1528 5.19453L70.3613 4.37799C69.9791 4.37799 69.5969 4.48223 69.2147 4.5691L69.3189 3.47459L67.7553 3.68307L67.9465 3.99578C67.5642 3.99578 66.3307 4.43011 65.6706 3.83943V3.24874C65.2987 2.86212 64.7977 2.62553 64.2629 2.58389C63.728 2.54226 63.1965 2.69848 62.7693 3.02289C61.8432 3.68669 60.8608 4.26802 59.8332 4.7602L59.8853 3.47459C58.8777 2.48432 60.0069 5.36827 58.9819 5.0208L58.6171 3.56145C58.2349 5.71573 57.4704 3.47459 56.6539 2.95339L57.4357 4.69071H56.2717C54.9166 4.49961 54.7428 2.6233 54.6212 1.56354C54.4938 2.16581 54.378 2.74492 54.2738 3.30086L53.5093 1.75464C53.5093 2.83178 53.3704 2.81441 53.075 2.72754C52.7797 2.64068 52.3453 2.48432 52.2064 3.1445C51.8763 2.57118 51.9458 2.13685 51.5462 1.99787C51.5462 2.93602 51.4419 3.82205 51.4072 4.74283L51.633 3.45722L52.5712 5.80259C52.6754 7.85263 51.5462 5.95895 51.3551 6.82761V6.09794C50.8165 7.01872 50.3301 6.09794 49.6178 5.75047C49.9652 6.11531 50.4517 6.65388 50.2779 7.08821C50.1042 7.52254 49.7741 6.34116 49.4267 6.1848C50.0868 7.73102 49.9131 8.77341 49.0792 8.30433C48.9861 8.11471 48.9105 7.917 48.8533 7.71364C48.8533 8.02636 48.9749 8.44332 48.5754 8.20009L47.8804 6.46278L48.2453 8.20009C47.7241 7.88737 47.9326 9.31198 47.394 8.20009V7.85263L45.1702 8.56493L44.4406 7.26194C45.1876 9.19036 42.877 7.26194 44.18 9.41621C43.1028 8.42594 43.1028 11.1535 41.9041 8.51281C40.3752 9.15562 41.0354 11.9874 38.6553 11.7616C36.779 10.0243 35.5455 11.7616 34.3467 12.248C32.87 14.5066 32.1056 16.1744 30.5941 18.2765C27.328 16.5392 28.3704 21.4732 25.9381 21.0041L26.4767 22.3419C24.2703 21.3863 24.7394 24.444 22.2376 23.8533C22.3332 24.1979 22.3627 24.5575 22.3245 24.9131C22.4114 24.9131 22.672 25.0347 23.28 25.6601C22.5677 25.5038 22.4461 26.6504 21.3169 25.3474V25.1389C20.1876 23.836 20.9173 26.6157 19.5795 25.8686L21.0563 27.0326L20.2571 27.3627L20.1702 26.9631C20.3092 29.6386 19.1973 30.2467 17.9638 30.7852C17.5715 30.848 17.1964 30.9916 16.8625 31.2071C16.5286 31.4225 16.2431 31.705 16.0242 32.0366C15.8053 32.3683 15.6577 32.7418 15.5909 33.1335C15.524 33.5252 15.5393 33.9265 15.6358 34.312C14.4197 32.5747 16.0007 35.4934 14.3155 34.0688C11.6747 32.87 13.7422 35.615 13.8811 36.5879C13.985 36.6751 14.0783 36.7742 14.1591 36.8832L13.221 37.6303C11.4836 35.3022 14.4718 39.7672 13.0472 37.7519C9.46835 38.8116 8.70393 43.3113 5.95897 45.7088L6.63652 45.9868C6.02846 46.6643 6.1327 48.0715 4.79497 48.0194C3.45723 47.9673 5.54201 50.2606 5.50727 50.5385C6.18482 51.8068 3.76995 51.1118 4.01317 50.9034C3.89156 51.772 5.75049 53.6831 4.22165 54.0653C1.94577 53.2314 4.84709 57.8005 2.48433 56.5496L2.67544 56.6713C0.33006 57.0361 2.5712 59.6594 0.416926 60.2675L0.121582 60.0243C2.11371 62.1206 4.14058 64.1475 6.20219 66.1049L14.6629 69.0757C17.1762 69.4 19.6664 69.7822 22.1334 70.2223C22.4461 68.3113 22.9152 66.435 23.3843 64.5239C25 63.7074 26.4941 62.8909 28.1445 62.1959C29.8359 59.0064 31.7336 55.9306 33.8255 52.9881L32.8179 51.0945C33.5093 51.2778 34.2438 51.2025 34.8836 50.8826C35.5234 50.5627 36.0244 50.0203 36.2925 49.3571C36.9875 48.2974 37.5781 47.0639 39.2981 47.1681L38.1341 45.8999C38.551 45.3787 39.2633 46.1779 39.5761 46.2821C40.6011 45.1528 41.574 43.9541 42.6164 42.8075C43.6015 41.5937 44.6512 40.4338 45.7609 39.3328C47.7911 37.1487 50.4296 35.6236 53.3356 34.9548C54.378 35.6497 55.4204 34.2946 56.3585 35.1285C56.5066 34.124 56.9538 33.1874 57.6417 32.4406C58.3296 31.6938 59.2264 31.1715 60.2154 30.9416V31.2717C60.4065 31.0284 60.615 30.8373 60.8235 30.6115C60.9266 30.74 61.0034 30.8876 61.0493 31.0458C61.0556 30.8798 61.0958 30.7168 61.1675 30.5669C61.2393 30.417 61.3409 30.2834 61.4663 30.1743C61.5916 30.0652 61.738 29.983 61.8964 29.9327C62.0547 29.8824 62.2217 29.8651 62.387 29.8818C63.0125 29.8818 64.1244 29.9687 64.1244 30.3161V30.4899C64.4544 30.4899 64.7324 29.6386 65.4968 29.378C65.6579 29.307 65.8365 29.2857 66.0098 29.3166C66.183 29.3476 66.3432 29.4294 66.4697 29.5517C66.5347 29.6136 66.5843 29.6898 66.6145 29.7743C66.6447 29.8588 66.6546 29.9492 66.6435 30.0382C66.9412 30.5866 67.1688 31.1703 67.321 31.7755C67.0083 33.6344 67.9117 34.4336 69.3189 35.9451C70.0878 36.5542 70.7245 37.3135 71.1905 38.1767C71.6564 39.0399 71.9418 39.9889 72.0292 40.9659C71.0041 42.4079 75.9902 48.3321 76.9979 48.6448Z" fill="white"/>
<path d="M84.2425 57.7485C83.5649 58.0439 83.8429 57.957 84.2425 57.7485V57.7485Z" fill="white"/>
<path d="M93.8848 33.3218L93.9021 33.3739L94.6839 32.6616L93.8848 33.3218Z" fill="white"/>
<path d="M100 43.2245C100 42.6512 99.7918 42.7207 99.5659 42.9118C99.5868 43.0084 99.6428 43.0938 99.723 43.1516C99.8032 43.2093 99.902 43.2353 100 43.2245Z" fill="white"/>
<path d="M87.0918 60.6673C87.0918 60.9105 87.4914 60.6673 87.891 60.3372L87.5956 60.0071C87.4914 60.1808 87.196 60.4588 87.0918 60.6673Z" fill="white"/>
<path d="M95.7261 55.7158L96.2994 55.5421C96.1972 55.5133 96.0889 55.5143 95.9873 55.5451C95.8857 55.5759 95.7951 55.6352 95.7261 55.7158Z" fill="white"/>
<path d="M57.2271 74.4094C64.7208 74.4094 70.7956 68.3346 70.7956 60.8409C70.7956 53.3473 64.7208 47.2725 57.2271 47.2725C49.7335 47.2725 43.6587 53.3473 43.6587 60.8409C43.6587 68.3346 49.7335 74.4094 57.2271 74.4094Z" fill="#F7931E"/>
<path d="M69.649 60.8061C69.8054 60.8061 70.1355 60.8061 70.066 60.7019H69.4927L69.649 60.8061Z" fill="#F7931E"/>
<path d="M70.6741 60.0069C70.2644 59.8263 69.8071 59.7836 69.3711 59.8853C69.927 59.9721 69.7012 60.0242 70.3614 60.1285C70.3614 60.2501 70.1876 60.337 69.9792 60.337C70.1355 60.337 69.8575 60.5281 70.2224 60.5802C70.5872 60.6323 70.6741 60.198 70.2224 60.0242C70.3689 59.9795 70.5245 59.9735 70.6741 60.0069Z" fill="#F7931E"/>
<path d="M65.5664 49.1313V49.2356C65.5799 49.2022 65.5799 49.1648 65.5664 49.1313Z" fill="#F7931E"/>
<path d="M58.2002 46.1953C58.2294 46.1911 58.256 46.1765 58.2752 46.1541C58.2943 46.1318 58.3047 46.1032 58.3044 46.0737C58.3044 46.0737 58.2002 46.1432 58.2002 46.1953Z" fill="#F7931E"/>
<path d="M56.8105 45.5351C56.8105 45.5351 56.8279 45.483 56.8105 45.5351V45.5351Z" fill="#F7931E"/>
<path d="M65.5664 49.1315V48.8535C65.3753 49.0099 65.4969 49.0446 65.5664 49.1315Z" fill="#F7931E"/>
<path d="M69.1104 58.6172C69.1618 58.6291 69.2153 58.6291 69.2667 58.6172H69.1104Z" fill="#F7931E"/>
<path d="M68.4849 51.1814L68.6934 51.0771L68.4849 51.1814Z" fill="#F7931E"/>
<path d="M70.1526 53.3877C70.1526 53.3877 69.7009 53.5441 69.5098 53.6309C69.7009 53.6309 69.8051 53.6309 69.8746 53.6309L70.1526 53.3877Z" fill="#F7931E"/>
<path d="M67.165 49.6873L67.2693 49.5483L67.165 49.6873Z" fill="#F7931E"/>
<path d="M70.9346 60.8408L70.9519 60.8756L71.2299 60.8929L70.9346 60.8408Z" fill="#F7931E"/>
<path d="M41.9907 64.1244C42.3556 63.7769 42.6509 64.4371 43.0157 63.9333C42.842 64.0202 42.1818 63.7422 41.9907 64.1244Z" fill="#F7931E"/>
<path d="M69.1625 58.5476C69.158 58.5188 69.158 58.4895 69.1625 58.4607C69.1625 58.4607 69.1451 58.5302 69.1625 58.5476Z" fill="#F7931E"/>
<path d="M48.4189 47.8979L48.5927 48.0369C48.5447 47.9794 48.4856 47.9321 48.4189 47.8979Z" fill="#F7931E"/>
<path d="M47.012 49.9132H46.873C46.873 49.9132 46.9078 49.8959 47.012 49.9132Z" fill="#F7931E"/>
<path d="M66.0181 68.2766L66.4176 68.5024C66.1223 68.2939 66.2092 68.016 66.0181 68.2766Z" fill="#F7931E"/>
<path d="M49.6004 52.7795L49.3398 52.9185C49.4374 52.8957 49.5272 52.8478 49.6004 52.7795Z" fill="#F7931E"/>
<path d="M54.0308 71.9597C54.0308 71.9597 54.0655 71.9076 54.0308 71.9597V71.9597Z" fill="#F7931E"/>
<path d="M48.8189 53.5788C48.7063 53.5182 48.5818 53.4826 48.4541 53.4746V53.5788H48.8189Z" fill="#F7931E"/>
<path d="M66.5565 66.2613C66.4001 66.4697 67.0255 66.6956 67.3209 66.9388C67.3209 67.321 66.8344 66.8172 66.5043 66.7477C66.5043 67.0083 66.9561 67.4774 66.8344 67.5816C66.7469 67.5499 66.6691 67.496 66.6086 67.4253C66.8866 67.8943 66.2438 67.9638 66.6086 68.5719H66.4696C66.7213 68.7317 66.9595 68.9118 67.1819 69.1105C67.1819 69.2147 67.3209 69.5622 66.9561 69.3363C66.9561 69.3363 66.9561 69.1626 66.8344 69.0583V69.2842C66.2959 68.9888 66.8344 69.0062 66.4696 68.7109C66.4696 69.0236 66.5912 69.6143 66.3132 69.649C65.8615 69.2668 66.5044 69.1452 65.931 68.9888H66.3132C65.462 68.5371 66.487 68.902 65.6009 68.3982C65.2187 68.5545 65.6009 68.9367 65.1319 69.0931C65.2882 69.3884 65.4967 69.4232 65.6531 69.7185C65.6531 70.5524 64.3153 68.9194 64.5412 69.7185C64.7149 70.0834 65.1319 70.6914 64.6454 70.5698L64.2806 69.8923C63.9331 70.066 64.6802 70.7957 64.0721 70.6914C63.9852 70.4308 64.1937 70.3266 64.0721 70.2918C63.5509 70.0139 64.0721 70.7088 63.9679 70.8478L63.603 70.3787C63.3077 70.6567 63.1513 71.2995 62.7517 71.5948C62.7517 71.4211 62.7517 71.23 62.5085 71.1084C62.1263 71.6469 61.3445 71.5774 60.7712 71.4037V71.9597C60.7712 71.9597 60.6148 71.7686 60.6322 71.6643C60.3716 71.5253 60.6322 71.977 60.6322 72.1855C60.6322 72.394 60.389 71.9423 60.4237 71.7859C60.1979 72.2898 59.5551 72.9847 59.0513 72.4809V72.3245C58.7212 72.1681 58.8254 73.419 58.4779 72.9847V72.8804C57.7656 72.7241 56.9665 73.2279 56.4627 72.394C56.3063 73.1237 55.8198 72.0292 55.6635 73.0368C55.3334 72.4635 55.4724 72.3071 54.9859 71.8902C54.8469 71.8902 54.6558 72.4809 54.4474 72.533L54.569 72.0118L54.2041 72.4982V71.838L54.013 71.9249C54.0417 71.9907 54.0565 72.0616 54.0565 72.1334C54.0565 72.2051 54.0417 72.2761 54.013 72.3419C53.6829 72.5156 53.4745 71.8207 53.5787 71.5427L52.849 71.7512C52.9359 71.5601 53.0575 71.5253 53.1965 71.4211C52.6927 71.8207 53.3529 70.8825 52.8838 71.2474C52.8422 71.3847 52.7775 71.5139 52.6927 71.6296C52.6863 71.5571 52.6653 71.4866 52.6309 71.4225C52.5965 71.3583 52.5495 71.3018 52.4926 71.2564C52.4358 71.2109 52.3703 71.1774 52.3002 71.158C52.2301 71.1385 52.1567 71.1335 52.0846 71.1431L52.2931 70.8304C51.9283 70.5698 51.3897 70.5351 50.938 70.2745C50.938 70.5177 50.6253 71.0389 50.4515 71.0041L50.7121 70.5003C50.4342 70.7435 50.7121 70.7609 50.3125 71.0041C50.1736 70.8304 50.5731 70.3961 50.7642 70.3092H50.4689C50.4689 70.1702 50.6426 70.1181 50.7816 69.9617C50.5037 70.1876 50.7816 69.2668 50.3299 69.6838L50.4168 69.5448C50.0172 69.2668 49.7392 69.2147 49.4091 68.9715C49.0617 69.3189 49.0269 69.1278 48.6447 69.3189C48.5405 68.9715 48.6447 68.4503 48.2973 68.2071C47.9498 67.9638 47.9324 68.4155 47.6197 68.5024C47.9498 68.2071 47.6197 67.9291 48.0714 67.8943C47.7756 67.5932 47.4207 67.3566 47.029 67.1994C46.9074 67.3558 46.8727 67.46 46.7337 67.5121C46.5947 67.5642 46.7337 67.1994 46.9595 67.0952C45.9866 66.8346 47.3939 65.2015 46.3688 65.1494L45.726 64.8193C45.726 64.5587 46.0909 64.8193 46.282 64.5934C45.3612 64.2981 46.143 63.7074 45.5349 63.3947C46.751 62.804 45.2048 62.1438 46.0387 61.5531H45.726C45.4133 61.4489 45.8998 61.3968 45.9693 61.2925C45.726 61.2925 45.6913 61.4315 45.5349 61.2925C45.0832 60.198 46.0387 59.0861 46.5426 58.1827C46.7163 57.8526 45.0485 57.5573 45.8824 57.2619L46.4036 57.5747C46.3283 57.3742 46.2986 57.1595 46.3166 56.9462C46.3346 56.7328 46.4 56.5261 46.5078 56.3412C46.7558 55.9936 46.8672 55.5669 46.8205 55.1424C46.9074 55.2467 47.0638 55.3335 47.029 55.403C47.4633 55.403 47.3591 54.8992 47.029 54.7081C47.1333 54.7081 47.307 54.8471 47.4981 54.8645C47.6892 54.8818 47.2549 54.2216 47.6545 54.378C47.6545 54.378 47.6545 54.4822 47.7413 54.5344C47.8282 54.5865 48.0888 54.1695 47.6371 53.961C48.0019 53.8742 47.8108 53.3704 48.1756 53.3704C47.8803 52.9013 48.7142 53.1619 48.1756 52.6233C48.749 53.1793 48.9748 52.6233 48.8706 52.2932C48.9922 52.5017 49.1659 52.2932 49.3396 52.6581C49.4786 52.5191 49.5308 52.2758 49.2354 51.9979C50.1041 52.4496 49.3918 50.9034 50.3125 51.7199C50.5283 51.0634 50.8975 50.4678 51.3897 49.9826C51.7198 50.6601 50.8511 50.3648 51.2854 51.0771C51.5634 50.5038 51.5982 49.8089 52.1715 49.7046C52.3452 49.7046 52.1715 50.0521 52.1715 50.1911C52.5537 49.6699 53.1791 49.861 53.5092 49.3224C53.5331 49.3958 53.5331 49.4749 53.5092 49.5483C53.5961 49.5483 53.7524 49.5483 53.6482 49.2703V49.3919C53.3355 48.9402 53.7524 48.2453 53.6482 47.9847C53.6482 49.0097 54.2215 48.1063 54.2389 49.4266C54.2975 49.2698 54.2975 49.0971 54.2389 48.9402C54.3431 48.9402 54.4126 49.1139 54.3779 49.4093C54.6732 49.1313 54.4821 48.8012 54.8122 48.7491C54.8236 48.8994 54.8236 49.0504 54.8122 49.2008C54.9164 48.8533 55.0207 48.4885 55.3334 48.5927C55.3334 48.697 55.3334 48.836 55.3334 48.836C55.7677 48.697 56.0631 47.8631 56.6364 48.1584C56.4974 48.9228 56.8275 48.4016 56.8622 49.0444L57.1402 48.8533L57.3313 48.6449C57.5745 48.6449 57.8178 48.2105 58.0262 48.4364L57.8351 48.697L58.3042 48.5927L58.061 48.3321C58.339 48.0194 58.061 47.5156 58.4258 47.7067C58.4258 47.7067 58.7038 47.7067 58.7907 48.141C58.947 47.9499 59.1034 47.7588 59.2771 47.9499C59.4508 48.141 59.1381 48.6449 59.1381 48.8012C59.3466 48.2974 59.7462 48.8012 60.0068 48.2105C59.9232 48.3732 59.8702 48.5499 59.8504 48.7317L60.0415 48.3321C60.0415 48.5059 60.0415 48.5754 60.0415 48.836C60.3542 49.0097 60.0415 48.002 60.4411 48.4537C60.4411 48.4537 60.4411 48.5406 60.3195 48.5927C60.6843 48.8707 61.2055 48.5927 61.5009 48.8707C61.3966 49.5309 61.136 48.8707 61.0839 49.4788C61.6051 49.4788 62.439 49.1313 62.8212 49.4788V49.3745C63.2903 48.5927 62.995 49.9478 63.4293 49.6872C63.3424 49.6872 63.1166 50.0868 63.1687 50.0173C63.3946 50.3301 63.9157 50.1911 64.5586 50.2606L64.2806 50.3822C64.2806 50.6949 64.6628 50.8165 64.7844 51.0424C64.9929 50.9034 65.0624 51.0424 65.2187 50.6949C65.0971 51.4246 65.4272 51.5288 65.8268 51.5983C66.2264 51.6678 66.626 51.7547 66.4349 52.3801C66.4349 52.3801 66.1569 52.3801 66.209 52.3801L66.7302 52.6407C67.0082 52.3453 66.8692 52.4322 67.0255 52.1369C67.1114 52.0829 67.2108 52.0542 67.3122 52.0542C67.4136 52.0542 67.513 52.0829 67.5989 52.1369C67.2167 52.1369 67.1124 52.5538 66.9908 52.7797C66.9908 52.6928 67.1993 52.6233 67.2861 52.5364C66.9039 53.214 67.9463 52.0674 67.8247 52.7102L67.651 52.8144C67.8247 52.8144 68.1374 52.8144 68.1895 52.9881C67.8595 53.3182 67.9116 52.9882 67.5989 53.1966C67.7552 53.353 68.6065 53.0576 68.3285 53.5093C68.1722 53.5093 68.1027 53.3704 67.9289 53.3704C67.6162 53.8568 67.7205 53.8047 67.7378 53.9958V54.4475V54.2911C68.9192 53.9089 68.2417 54.656 69.093 54.6386C68.259 54.6386 68.676 54.7776 68.2069 55.0034C68.1201 55.1598 68.0332 55.3509 67.8768 55.3856C68.3285 55.3856 67.7031 55.7852 68.3633 55.7331C68.2069 55.7331 68.3633 55.9068 68.0158 56.0458C68.2417 56.1848 68.259 55.8895 68.4675 55.82C69.1624 55.9242 68.1027 56.8276 69.0235 57.0187C69.4578 57.3314 70.0137 57.2793 70.4133 57.6268C70.1875 57.8353 69.7879 57.6268 69.7879 57.6268C69.5968 57.9048 69.701 58.0611 69.9269 58.2348C69.7635 58.2373 69.6051 58.2921 69.4752 58.3912C69.4752 58.5476 70.1006 58.3912 69.8921 58.6692C69.6608 58.6871 69.4285 58.6871 69.1972 58.6692C69.3709 58.8255 69.7184 58.9819 69.9095 59.173C69.6315 59.2599 69.4404 59.173 69.2493 59.0688C69.3334 59.2197 69.4506 59.3496 69.592 59.4489C69.7334 59.5482 69.8954 59.6142 70.0659 59.6421L70.2222 59.4683C70.2222 59.4683 69.8226 59.4683 69.7358 59.4683C69.3362 59.312 69.8574 59.173 70.0137 59.1383L70.1527 59.2772C71.1082 58.9993 69.8921 58.6866 69.9095 58.3912H70.6392L69.9964 58.1827C70.1701 58.0785 70.5523 57.9569 70.6913 58.0785C71.004 57.7831 70.3959 57.9395 70.6913 57.6615C70.7098 57.6509 70.7307 57.6452 70.7521 57.6452C70.7734 57.6452 70.7944 57.6509 70.8129 57.6615L70.5523 57.4878C70.7087 57.4878 71.0387 57.3314 70.9693 57.4878C71.2646 56.9666 70.2743 56.984 70.7608 56.6713C70.3612 56.2022 70.2396 56.7581 69.5099 56.567L70.6392 55.8721L70.118 55.9937C70.118 55.9937 70.118 55.8026 70.3264 55.7505C69.9095 55.7505 70.118 55.8721 69.7531 55.8721C70.118 55.4204 69.2667 55.264 69.9964 54.8645C69.5794 54.8645 69.8226 55.2293 69.4404 55.0903C70.2222 54.6212 69.1451 54.8471 69.4404 54.4301C69.8921 54.2911 69.7879 54.6212 70.0311 54.2043C69.2667 54.4301 70.0311 53.6483 69.701 53.5267C69.1451 53.8394 69.2146 53.2487 68.8497 53.0403C69.0582 52.936 68.7281 52.2758 68.6934 51.8415H68.7802C68.2243 52.1716 68.1201 51.8415 67.8421 51.7025C67.9297 51.6108 68.0348 51.5374 68.1511 51.4867C68.2675 51.436 68.3927 51.409 68.5196 51.4072L68.3459 51.2161C68.2705 51.2542 68.1872 51.2741 68.1027 51.2741C68.0182 51.2741 67.9349 51.2542 67.8595 51.2161L68.259 50.9555C67.9984 50.7123 67.4078 50.8339 67.3209 50.3127C66.9908 50.6254 66.6781 51.4072 66.1743 51.3377C66.3306 51.1466 66.6086 50.8512 66.7476 50.8512C66.8866 50.8512 66.5044 50.8512 66.5217 50.8512L66.9387 50.6775C66.9387 50.4169 66.626 50.8512 66.5391 50.6775C66.7823 50.4343 66.5391 50.4169 66.8171 50.2432C67.095 50.0695 66.8171 50.4343 66.9561 50.3822C66.9061 50.2732 66.8802 50.1546 66.8802 50.0347C66.8802 49.9148 66.9061 49.7963 66.9561 49.6872C66.8344 49.8436 66.6433 50.0347 66.5217 49.9826C66.4001 49.9305 66.7128 49.6004 66.6781 49.3224C66.4696 49.444 66.4522 49.1313 66.1221 49.5135C66.1221 49.5135 66.1221 49.2529 66.2438 49.1313C65.9658 49.1313 65.5488 48.697 65.3925 49.2529C64.6802 49.2529 64.5933 48.3843 64.0026 48.28V48.1237C63.6204 48.1237 63.2903 47.8978 62.9255 48.1237C62.9255 48.1237 62.9255 47.7414 62.9255 47.5677C62.6301 47.5677 62.5606 47.7241 62.3174 47.3419C62.6649 47.1508 62.3174 47.0639 62.6475 47.2376C62.3869 46.977 62.4043 46.6991 61.9005 47.0118C62.1611 46.6469 61.9005 46.4037 61.6399 46.4732L61.7615 46.8554C61.591 46.8469 61.4273 46.7862 61.2924 46.6817L61.553 46.1605C61.0318 45.2918 60.0415 46.977 59.8157 45.7435C59.5551 46.1084 60.1458 46.0736 59.8157 46.5253C59.5377 46.4037 59.3292 45.5351 59.225 45.5177C58.808 45.1355 58.7038 46.2821 58.2695 46.0215C58.2695 46.23 58.2695 46.7859 57.9741 46.9597C57.6788 46.8728 57.644 46.0736 57.8699 45.9173C58.0957 45.7609 57.9741 45.9173 57.9741 46.0389C57.9741 46.1605 58.2347 45.8825 58.1131 45.6567V45.8651C57.9741 45.6393 57.5224 45.6393 57.644 45.3092C57.3834 45.5003 57.5224 45.6393 57.644 45.7609C57.2444 45.4482 57.0012 45.7609 56.5669 45.5351C56.5669 45.6393 56.7059 45.8825 56.5669 45.8825C55.9415 45.6567 56.3063 46.2821 55.9067 46.4037C55.6461 46.1084 55.9067 45.6567 55.5419 45.9346C55.2639 45.7435 55.4376 45.3961 55.5419 45.2223C55.177 45.6219 54.7601 45.066 54.5169 45.0139L54.708 44.8228C54.6187 44.9079 54.5012 44.9574 54.3779 44.9617L54.569 45.344C54.43 45.344 54.3258 45.3439 54.3084 45.1355C54.3084 45.4134 54.5169 45.7957 54.3084 46.1952C54.1173 46.0215 53.874 46.4906 53.7177 45.9694C54.2563 46.0562 53.544 45.4308 53.9783 45.2745C53.9322 45.3058 53.8777 45.3226 53.8219 45.3226C53.7662 45.3226 53.7117 45.3058 53.6656 45.2745C53.6499 45.2514 53.6415 45.2242 53.6415 45.1963C53.6415 45.1684 53.6499 45.1412 53.6656 45.1181C53.0575 44.7533 53.5613 45.7783 53.0749 45.8825C53.0749 45.5698 52.8143 45.3439 52.7448 45.4308C52.9533 45.4308 52.9706 45.8999 52.849 46.1779C52.4668 46.0215 52.5537 46.4385 52.3973 46.4558H52.6058C52.6058 46.7686 52.4668 46.7686 52.2931 46.9423C52.2062 46.7164 52.4321 46.7164 52.2931 46.6469C52.2931 47.2376 51.5982 46.2995 51.3897 46.7686C51.1638 46.6296 51.1638 46.23 50.9727 46.1605C50.7469 46.6643 50.3994 45.9346 50.1388 46.4211C50.4168 46.7512 50.3994 46.6469 50.3125 47.1334L50.799 46.5774L50.66 47.3071C50.8337 47.3071 50.938 46.8728 51.077 46.9075C51.077 47.2897 51.077 47.2029 51.216 47.4635C50.7295 47.0118 50.8859 48.0194 50.4515 47.7762L50.382 46.9944C49.7045 46.8033 49.8435 47.8457 49.2007 47.9499H49.4613C49.6002 48.3495 49.1659 48.1932 49.0791 48.4364C48.9505 48.2296 48.7629 48.0662 48.5405 47.9673C48.6968 48.1758 48.1409 48.2279 48.5405 48.8186L48.054 48.6449C47.5328 48.8186 48.193 49.7394 47.7934 49.9652C47.6545 49.583 47.3244 49.5483 47.3939 49.1313C47.2722 49.2355 47.1159 49.2877 47.2722 49.4788C47.0638 49.3919 47.2722 50.1216 46.9248 49.9826C46.9248 50.1389 47.2201 50.4169 47.0638 50.5038C47.0033 50.4753 46.9499 50.4338 46.9074 50.3822C47.0116 50.5038 46.9074 50.747 47.2549 50.9034C46.1777 50.5212 46.4036 51.8936 45.5176 51.6678C45.4037 52.0162 45.2583 52.3535 45.0832 52.6754C45.0832 52.6754 44.9442 52.5712 45.0832 52.5538C44.5794 52.7449 45.7781 53.3182 45.2222 53.5267C44.6141 53.5267 45.1006 53.1445 44.84 53.1793C43.8497 52.6581 44.6489 53.7526 43.9366 53.7352V53.631C43.4849 53.631 44.0408 54.3954 43.7976 54.7255C43.7459 54.7167 43.693 54.7167 43.6412 54.7255C43.9369 55.1528 44.0835 55.6657 44.0582 56.1848C43.676 55.9242 43.9018 55.9416 43.4501 55.8547C43.4501 56.0458 44.1451 56.0458 44.1451 56.4107C43.8138 56.514 43.464 56.5436 43.1201 56.4975C43.1201 56.3933 43.1201 56.2717 43.1201 56.1674C42.4599 56.1674 42.9984 56.6018 42.8595 56.7408L42.5989 56.6365C42.5989 57.1751 43.2069 57.3488 43.0332 57.87H43.2417C43.8324 58.287 42.8247 58.0437 43.2417 58.426H42.5467C42.7993 58.7792 43.0147 59.1577 43.1895 59.5552C42.6857 59.312 42.512 58.8603 42.2514 58.5476C42.2514 58.756 42.2514 59.2425 42.512 59.3815C42.512 59.3815 42.3035 59.173 42.4251 59.1035C42.9116 59.4162 43.1722 59.7289 43.1374 60.1112C41.8171 59.9722 42.7378 61.1014 41.7649 61.4141C42.2688 62.1091 41.6433 62.8735 41.8866 63.7248C42.8595 63.2383 41.8866 63.968 42.9811 63.7248C43.0853 63.8985 43.0853 63.968 42.9811 64.0027L42.512 64.715C42.2514 64.9235 42.234 64.5934 42.0082 64.715C42.0082 65.1667 41.626 65.0104 41.4175 65.3752C41.7649 65.2189 41.9734 65.3752 41.9039 65.6706L42.2861 65.1841C42.9637 65.6011 41.5912 65.9659 42.2861 66.3829H41.9039C42.1993 66.6261 42.3209 67.5469 43.2417 67.4426C43.1548 67.5469 42.9289 67.738 42.79 67.6337C42.9984 68.4155 44.3709 68.6935 44.2319 69.3711L43.9887 69.4579C44.1277 69.4579 44.5099 69.4579 44.4057 69.6838C44.3014 69.9096 44.1624 69.788 44.1798 69.8401C44.1972 69.8923 44.7705 69.8401 44.7705 70.1181H44.4404C44.6141 70.9346 45.6913 70.5872 46.1777 70.8825C45.9841 71.0554 45.8559 71.2897 45.8148 71.546C45.7736 71.8023 45.822 72.065 45.9519 72.2898C46.5426 72.9673 47.4807 72.8283 48.2799 73.0368C48.1756 74.0271 49.4613 74.2529 50.0172 75.0173C50.0172 74.8436 50.3125 74.4961 50.4689 74.4788C50.6253 74.4614 51.1465 74.2182 50.8337 74.8436C50.6774 75.5212 51.1117 75.5385 51.3897 75.6601L51.7719 74.8262C51.8935 75.5733 52.4321 75.6601 52.9012 75.6601C53.3702 75.6601 53.8219 75.6602 53.8914 76.2335C54.1173 76.0597 54.3605 76.0945 54.569 75.9034L54.4647 76.3898C54.9039 76.6143 55.3992 76.7049 55.8893 76.6504L55.7156 76.9979C56.0978 76.9979 56.2889 75.608 56.6016 75.5907V76.3377C57.2097 76.3377 57.9046 76.9631 58.4953 76.3377C58.4953 76.4419 58.4953 76.6504 58.3911 76.6852C58.6864 76.6852 59.6246 77.0326 59.3813 76.0597C59.4856 76.7025 60.0415 76.0597 60.3021 75.6775V76.164C60.4585 75.4864 60.4237 75.3301 60.7538 75.0695C60.8581 75.0695 60.9276 75.4169 60.7538 75.3301C61.1187 75.5038 60.8581 74.8262 61.2924 74.9826V75.3127C61.6051 75.3127 61.5356 75.1216 61.5877 74.722C61.6399 74.3224 62.1784 74.722 62.3695 75.0347C62.3695 74.7741 62.3695 74.3745 62.5606 74.4267C62.5831 74.4788 62.5947 74.5349 62.5947 74.5917C62.5947 74.6485 62.5831 74.7046 62.5606 74.7567C63.1861 74.8957 63.0471 73.9228 63.5683 74.2182C63.6069 74.3065 63.6665 74.384 63.742 74.444C63.5271 74.5667 63.2916 74.6492 63.0471 74.6873C63.2208 75.1042 63.5683 75.0173 63.5683 75.6949C63.7073 75.2606 63.8115 74.3919 64.2111 74.4267L64.3153 74.5483C64.4022 74.5483 64.4543 74.5483 64.4717 74.3919C64.5736 74.4228 64.6825 74.4228 64.7844 74.3919C65.0103 74.6873 65.2361 74.3919 65.3925 74.2703C65.1319 73.8533 65.3925 73.8186 64.9581 73.5754C64.9581 73.5754 64.9581 73.5754 64.9581 73.7144L64.6107 73.9576C64.6107 73.6796 64.6107 73.419 64.906 73.558L64.6975 72.7762C65.2535 73.2453 65.8268 73.3148 66.1221 73.6101C66.3827 73.0542 67.0429 72.7241 66.6781 71.8728C66.6781 71.6817 66.9734 71.9597 67.1124 72.0292C67.2514 72.0986 67.1124 72.2203 67.1124 72.3419C67.1124 71.9597 67.7031 71.6817 67.3035 71.1779C67.7726 71.1779 67.5641 71.7512 67.8595 71.3169L67.9463 71.508C68.6586 71.508 68.6412 70.8825 68.6412 70.344C68.6412 69.8054 68.6413 69.2668 69.4404 69.1973C69.3565 69.2294 69.2637 69.2294 69.1798 69.1973C70.3786 68.4503 70.0137 66.8172 71.2472 66.018C71.5426 65.7401 71.2472 65.5663 70.9519 65.2884L71.4731 65.3752L70.9866 64.854C70.6565 64.2807 72.4981 64.2981 71.7684 63.4642H71.4036C71.5078 63.2383 71.2993 62.7171 71.6989 62.804C71.6989 62.804 71.3515 62.6824 71.5426 62.6129H71.8205C71.6941 62.4019 71.5548 62.1988 71.4036 62.0048C71.6294 61.5879 72.4807 62.1612 72.5676 61.4836C72.4807 61.223 71.8032 60.7713 71.6121 60.8582C71.421 60.9451 71.421 61.1014 71.1604 61.1014L70.9519 60.8061C70.2022 60.6452 69.4203 60.7368 68.7281 61.0667L69.2146 61.3968H68.815V61.1362C68.4328 61.2578 68.815 61.362 68.9713 61.4836C68.8218 61.4782 68.673 61.5079 68.537 61.5705L69.2841 61.9353C68.9713 61.9353 68.676 61.7442 68.4675 61.9353C68.7976 62.1091 69.1972 61.9353 69.3883 62.1438C69.0061 62.2481 68.7107 62.1438 68.9887 62.3697C68.837 62.3787 68.6877 62.3289 68.5718 62.2307C68.7976 62.4044 68.5718 62.6303 69.0235 62.7866C68.5718 62.7866 69.0235 63.3252 68.2938 63.1515C68.4675 63.1515 68.815 63.5337 68.815 63.69C67.9984 63.221 68.6413 64.1765 67.7031 63.8464C68.4501 64.2633 67.8247 64.5587 68.1548 65.0451C68.1548 65.0451 67.9811 64.9235 68.0332 64.9062C68.0853 64.8888 67.651 65.0104 67.4772 65.0625C68.1027 65.3405 68.1027 65.6706 68.4154 66.0007C67.7205 66.0007 67.7552 65.5316 67.1472 65.3405C67.651 65.5663 67.4772 65.9312 67.9289 66.0528C67.6606 66.077 67.3907 66.029 67.1472 65.9138C67.8768 66.3307 67.1472 66.1223 67.5989 66.5045C67.095 66.5045 66.8692 66.157 66.9561 66.5045C66.6781 66.6261 66.5565 66.2613 66.5565 66.2613ZM62.8734 71.7164H62.995H62.8734ZM62.3522 71.977L62.5954 71.8902C62.6822 72.0292 62.7517 72.2029 62.6823 72.2203C62.6128 72.2376 62.5433 72.0813 62.3348 71.9944L62.3522 71.977ZM65.1666 74.3224C65.1666 74.444 65.0103 74.3224 64.9581 74.3224L65.0971 74.1661C65.1187 74.2226 65.1362 74.2807 65.1492 74.3398L65.1666 74.3224Z" fill="#F7931E"/>
<path d="M64.9927 73.6797H64.8711V73.836L64.9927 73.6797Z" fill="#F7931E"/>
<path d="M54.6731 71.8728L54.6558 71.9944L54.7253 71.9076L54.6731 71.8728Z" fill="#F7931E"/>
<path d="M67.0086 52.8665C67.001 52.9066 67.001 52.9479 67.0086 52.9881V52.8665Z" fill="#F7931E"/>
<path d="M67.7554 54.0825V54.3431C67.7706 54.2569 67.7706 54.1687 67.7554 54.0825Z" fill="#F7931E"/>
<path d="M53.8568 49.6526C53.7352 49.7916 53.8568 49.7394 53.8568 49.6526V49.6526Z" fill="#F7931E"/>
<path d="M58.7214 48.0889C58.6658 48.1654 58.6017 48.2353 58.5303 48.2973C58.6171 48.3495 58.6866 48.3668 58.7214 48.0889Z" fill="#F7931E"/>
<path d="M49.6348 52.7625L49.6175 52.7451L49.6001 52.7799L49.6348 52.7625Z" fill="#F7931E"/>
<path d="M58.2866 48.2802C58.3013 48.2983 58.3198 48.3129 58.3409 48.323C58.3619 48.333 58.3849 48.3382 58.4082 48.3382C58.4316 48.3382 58.4546 48.333 58.4756 48.323C58.4967 48.3129 58.5152 48.2983 58.5298 48.2802C58.5298 48.2802 58.3561 48.2107 58.2866 48.2802Z" fill="#F7931E"/>
<path d="M69.4927 59.7639L69.3711 59.6597C69.3711 59.6597 69.319 59.7465 69.4927 59.7639Z" fill="#F7931E"/>
<path d="M69.0407 57.731C69.0407 57.8352 68.7454 58.0611 68.8844 58.1827H69.0233C68.7454 58.1653 69.3534 57.7657 69.0407 57.731Z" fill="#F7931E"/>
<path d="M70.4829 55.1946V55.5942C70.6393 55.4552 70.8304 55.2641 70.952 55.4379C71.23 54.7603 70.6219 55.7332 70.4829 55.1946Z" fill="#F7931E"/>
<path d="M70.1528 53.857C70.3266 54.0307 70.3961 53.718 70.5003 53.6832C70.2744 53.6485 70.2223 53.6485 70.1528 53.857Z" fill="#F7931E"/>
<path d="M63.2212 47.4288L63.4297 47.0292C63.2212 47.0118 63.3428 47.2029 63.2212 47.4288Z" fill="#F7931E"/>
<path d="M60.8062 48.975V49.2877L60.9973 48.9229L60.8062 48.975Z" fill="#F7931E"/>
<path d="M60.6324 45.6568L60.7193 45.6221L60.3892 45.7089L60.6324 45.6568Z" fill="#F7931E"/>
<path d="M45.3267 51.0598L45.7784 51.3725C45.7957 51.2161 45.344 50.7992 45.3267 51.0598Z" fill="#F7931E"/>
<path d="M42.7207 57.731C42.4254 57.731 42.2169 57.9221 42.4775 58.0958C42.5296 57.9394 42.7728 57.8178 42.7207 57.731Z" fill="#F7931E"/>
<path d="M51.7895 75.5908L51.5811 75.6951L51.9111 75.6603L51.7895 75.5908Z" fill="#F7931E"/>
</g>
<path d="M130.24 25.08V28.8H122.48V54H118.6V28.8H111.04V25.08H130.24ZM149.336 46.4H138.216L135.136 54H131.296L143.936 23.88H144.176L156.816 54H152.336L149.336 46.4ZM148.016 43.04L143.896 32.48L139.616 43.04H148.016ZM166.103 25.08V54H162.223V25.08H166.103ZM190.33 54L183.53 43.32C183.317 43.3467 182.997 43.36 182.57 43.36H178.29V54H174.41V25.08H182.13C184.103 25.08 185.863 25.4267 187.41 26.12C188.957 26.8133 190.17 27.84 191.05 29.2C191.93 30.5333 192.37 32.1467 192.37 34.04C192.37 35.8267 191.97 37.4667 191.17 38.96C190.397 40.4533 189.197 41.5867 187.57 42.36L194.85 54H190.33ZM182.49 39.6C184.57 39.6 186.063 39.0533 186.97 37.96C187.903 36.8667 188.37 35.6133 188.37 34.2C188.37 33.3467 188.17 32.5067 187.77 31.68C187.397 30.8533 186.783 30.1733 185.93 29.64C185.103 29.08 184.05 28.8 182.77 28.8H178.29V39.6H182.49ZM198.391 39.56C198.391 36.92 199.058 34.4667 200.391 32.2C201.725 29.9333 203.511 28.1333 205.751 26.8C208.018 25.44 210.485 24.76 213.151 24.76C215.791 24.76 218.245 25.44 220.511 26.8C222.778 28.1333 224.578 29.9333 225.911 32.2C227.271 34.4667 227.951 36.92 227.951 39.56C227.951 42.2267 227.285 44.6933 225.951 46.96C224.618 49.2267 222.805 51.0267 220.511 52.36C218.245 53.6667 215.791 54.32 213.151 54.32C210.485 54.32 208.018 53.6667 205.751 52.36C203.485 51.0533 201.685 49.28 200.351 47.04C199.045 44.7733 198.391 42.28 198.391 39.56ZM202.391 39.6C202.391 41.5733 202.871 43.4 203.831 45.08C204.791 46.76 206.098 48.0933 207.751 49.08C209.431 50.0667 211.258 50.56 213.231 50.56C215.205 50.56 217.005 50.08 218.631 49.12C220.285 48.1333 221.578 46.8 222.511 45.12C223.471 43.4133 223.951 41.56 223.951 39.56C223.951 37.56 223.471 35.7067 222.511 34C221.551 32.2933 220.245 30.9467 218.591 29.96C216.938 28.9733 215.125 28.48 213.151 28.48C211.178 28.48 209.365 28.9867 207.711 30C206.058 30.9867 204.751 32.3333 203.791 34.04C202.858 35.7467 202.391 37.6 202.391 39.6Z" fill="white"/>
<defs>
<clipPath id="clip0">
<rect width="100" height="76.9632" fill="white"/>
</clipPath>
</defs>
</svg>
