<svg width="129" height="45" viewBox="0 0 129 45" fill="none" xmlns="http://www.w3.org/2000/svg">
<g clip-path="url(#clip0)">
<path d="M12.8201 14.33C12.7701 14.33 12.8201 14.39 12.8201 14.33V14.33Z" fill="#020202"/>
<path d="M43.1401 0.590024C43.2401 0.410024 43.3201 0.260024 43.3901 0.150024L43.1401 0.590024Z" fill="#020202"/>
<path d="M48.8999 5.77995V5.84995C48.9999 5.75995 49.0699 5.67995 48.8999 5.77995Z" fill="#020202"/>
<path d="M28.2002 4.32996C28.2002 4.32996 28.2002 4.38996 28.2002 4.44996C28.1891 4.41073 28.1891 4.36918 28.2002 4.32996Z" fill="#020202"/>
<path d="M7.47021 21.0001C7.65021 21.0001 7.67022 21.2001 7.67022 21.2701C7.95022 21.3601 8.03022 21.2701 8.01022 21.1201C7.78022 20.8601 7.68021 21.0601 7.47021 21.0001Z" fill="#020202"/>
<path d="M0.09 34.5499L0 34.45L0.09 34.5499Z" fill="#020202"/>
<path d="M35.1301 17.83C35.1285 17.8599 35.1285 17.89 35.1301 17.92C35.1301 17.92 35.1401 17.88 35.1301 17.83Z" fill="#020202"/>
<path d="M1.45 32.54L1 32.29C1.14389 32.3839 1.29427 32.4675 1.45 32.54Z" fill="#020202"/>
<path d="M43.4399 0.16L43.5499 0C43.5089 0.0501655 43.4721 0.103686 43.4399 0.16Z" fill="#020202"/>
<path d="M52.1201 10C52.019 10.0745 51.9221 10.1546 51.8301 10.24L52.1201 10Z" fill="#020202"/>
<path d="M55.3602 31.37L55.5302 31.28L55.1802 31.35C55.2363 31.3765 55.2996 31.3835 55.3602 31.37Z" fill="#020202"/>
<path d="M53.5099 16L53.6599 15.93C53.7499 15.76 53.6599 15.53 53.4599 15.27L52.9399 15.58L53.5099 16Z" fill="#020202"/>
<path d="M44.3198 28L45.1298 27C46.4398 28.2 45.7298 29.46 47.2498 30.29H46.9798C46.8098 30.59 49.3398 29.51 47.3498 33.03L47.2398 33.08C47.2898 33.14 47.5098 33.08 47.2398 33.32L47.7398 32.64C48.1198 32.72 48.7398 32.64 48.9398 32.92C48.8011 33.0581 48.6384 33.1699 48.4598 33.25L48.9698 33.88L48.3598 34.42C48.8398 34.42 50.2998 33.69 49.7298 34.65C50.6798 33.96 50.4898 34.65 50.9898 34.36C50.8698 34.45 50.7098 34.6 50.5598 34.73C50.7345 34.9579 50.9562 35.1455 51.2098 35.2801C51.4635 35.4147 51.7432 35.4931 52.0298 35.51C52.8029 34.3684 53.655 33.2824 54.5798 32.26C54.5298 32.91 54.7698 32.34 55.0698 32.08L54.7898 32.16C54.9098 31.73 55.5598 31.44 55.6798 31.16L55.4998 31.25H55.5998C55.518 31.3042 55.4262 31.3416 55.3298 31.36C55.1898 31.43 55.0698 31.46 55.0698 31.36H55.1498C54.9998 31.27 54.9998 31 54.9998 30.88L55.5498 30.63C54.4098 30.88 56.4098 28.32 56.2798 27.98C56.8098 27.33 55.7598 27.35 55.9098 26.79C55.7698 26.07 56.5398 26.08 56.8398 25.53C56.9798 24.96 56.2498 25.93 56.1398 25.79L56.6498 24.93C56.8498 25.17 57.0998 24.86 57.2798 24.7C57.1598 24.24 57.7998 23.07 56.6698 23.51C56.8898 22.68 57.3098 22.46 57.2298 22.19C57.0798 22.37 56.9898 22.63 56.7798 22.74C57.1298 22.27 56.6098 22.74 56.5498 22.84C55.9198 22.76 57.5498 20.03 56.3198 20.6L56.5298 20.48C55.8193 20.9096 55.0564 21.2457 54.2598 21.48L54.5598 21.11H54.0598C54.195 20.9056 54.3962 20.7538 54.6298 20.68C54.0198 20.53 54.1898 19.68 54.0298 19.21L51.9998 21C52.3198 20.32 52.9998 19 52.2098 19.35L52.8498 18.66C53.8498 17.01 51.8498 18.52 52.1498 17.95L52.7498 17.05L52.9698 17.44C53.1421 16.8755 53.3839 16.3347 53.6898 15.83C53.6673 15.8778 53.6329 15.9192 53.5898 15.95H53.5398C53.0998 16.16 52.6898 16.14 52.5398 15.86C52.4098 15.41 51.6198 15.51 52.0998 14.33L51.1598 14.73L51.3598 13.95L52.0298 13.51C52.2898 13.98 53.0898 14.65 53.4898 15.21L53.7998 15.02C53.5798 14.68 53.0298 14.48 52.9498 14.21C53.0637 13.9723 53.2256 13.7607 53.4252 13.5886C53.6248 13.4165 53.8579 13.2876 54.1098 13.21L53.3198 13.43C52.4798 12.32 52.4798 12.43 52.3198 10.63L52.0998 11C51.7198 10.88 51.3598 10.76 51.8398 10.31C51.3098 9.32782 51.1637 8.18378 51.4298 7.09996L50.6098 7.58996C50.4998 7.38996 51.3198 6.16996 50.2598 6.95996L49.6098 6.86996C49.5298 6.73996 49.3398 6.69996 49.1598 6.59996C49.0525 6.54641 48.9671 6.45743 48.9179 6.34809C48.8687 6.23875 48.8588 6.11577 48.8898 5.99996V5.84996V5.90996C48.4798 4.95996 48.3398 6.53996 47.8898 5.41996C48.0498 4.66996 46.8898 6.10996 46.6298 5.63996C46.7698 5.17329 46.8998 4.69996 47.0198 4.21996C46.6598 2.99996 45.7998 3.99996 44.6898 3.39996C44.5103 2.94211 44.4764 2.44003 44.5927 1.9622C44.709 1.48437 44.9699 1.05406 45.3398 0.729961C44.2498 1.57996 44.7398 1.31996 43.7598 1.52996C43.7716 1.34208 43.8253 1.15922 43.917 0.994817C44.0087 0.830418 44.1361 0.68866 44.2898 0.579961C43.7898 -0.270039 43.6898 0.829961 43.1798 0.579961C42.8307 1.36872 42.4124 2.125 41.9298 2.83996L42.0198 3.17996C41.3798 3.50996 40.8498 3.57996 40.3798 2.98996L40.4998 2.51996C40.2798 2.51996 40.0598 2.57996 39.8398 2.62996L39.8998 1.99996L38.9998 2.11996L39.1098 2.29996C38.8898 2.29996 38.1798 2.54996 37.7998 2.20996V1.86996C37.5858 1.64742 37.2974 1.51124 36.9896 1.48728C36.6817 1.46331 36.3758 1.55323 36.1298 1.73996C35.5968 2.12204 35.0313 2.45666 34.4398 2.73996L34.4698 1.99996C33.8898 1.42996 34.5398 3.08996 33.9498 2.88996L33.7398 2.04996C33.5198 3.28996 33.0798 1.99996 32.6098 1.69996L33.0598 2.69996H32.3898C31.6098 2.58996 31.5098 1.50996 31.4398 0.899961C31.3665 1.24663 31.2998 1.57996 31.2398 1.89996L30.7998 1.00996C30.7998 1.62996 30.7198 1.61996 30.5498 1.56996C30.3798 1.51996 30.1298 1.42996 30.0498 1.80996C29.8598 1.47996 29.8998 1.22996 29.6698 1.14996C29.6698 1.68996 29.6098 2.19996 29.5898 2.72996L29.7198 1.98996L30.2598 3.33996C30.3198 4.51996 29.6698 3.42996 29.5598 3.92996V3.50996C29.2498 4.03996 28.9698 3.50996 28.5598 3.30996C28.7598 3.51996 29.0398 3.82996 28.9398 4.07996C28.8398 4.32996 28.6498 3.64996 28.4498 3.55996C28.8298 4.44996 28.7298 5.04996 28.2498 4.77996C28.1962 4.67081 28.1527 4.55701 28.1198 4.43996C28.1198 4.61996 28.1898 4.85996 27.9598 4.71996L27.5598 3.71996L27.7698 4.71996C27.4698 4.53996 27.5898 5.35996 27.2798 4.71996V4.51996L25.9998 4.92996L25.5798 4.17996C26.0098 5.28996 24.6798 4.17996 25.4298 5.41996C24.8098 4.84996 24.8098 6.41996 24.1198 4.89996C23.2398 5.26996 23.6198 6.89996 22.2498 6.76996C21.1698 5.76996 20.4598 6.76996 19.7698 7.04996C18.9198 8.34996 18.4798 9.30996 17.6098 10.52C15.7298 9.51996 16.3298 12.36 14.9298 12.09L15.2398 12.86C13.9698 12.31 14.2398 14.07 12.7998 13.73C12.8549 13.9283 12.8718 14.1353 12.8498 14.34C12.8998 14.34 13.0498 14.41 13.3998 14.77C12.9898 14.68 12.9198 15.34 12.2698 14.59V14.47C11.6198 13.72 12.0398 15.32 11.2698 14.89L12.1198 15.56L11.6598 15.75L11.6098 15.52C11.6898 17.06 11.0498 17.41 10.3398 17.72C10.114 17.7561 9.89809 17.8388 9.7059 17.9628C9.5137 18.0868 9.34939 18.2494 9.22338 18.4403C9.09738 18.6312 9.01244 18.8462 8.97395 19.0716C8.93547 19.2971 8.94428 19.5281 8.99982 19.75C8.29982 18.75 9.20982 20.43 8.23982 19.61C6.71982 18.92 7.90982 20.5 7.98982 21.06C8.04961 21.1102 8.10331 21.1672 8.14982 21.23L7.60982 21.66C6.60982 20.32 8.32982 22.89 7.50982 21.73C5.44982 22.34 5.00982 24.93 3.42982 26.31L3.81982 26.47C3.46982 26.86 3.52982 27.67 2.75982 27.64C1.98982 27.61 3.18982 28.93 3.16982 29.09C3.55982 29.82 2.16982 29.42 2.30982 29.3C2.23982 29.8 3.30982 30.9 2.42982 31.12C1.11982 30.64 2.78982 33.27 1.42982 32.55L1.53982 32.62C0.189824 32.83 1.47982 34.34 0.239824 34.69L0.0698242 34.55C1.21649 35.7566 2.38316 36.9233 3.56982 38.05L8.43982 39.76C9.88649 39.9466 11.3198 40.1666 12.7398 40.42C12.9198 39.32 13.1898 38.24 13.4598 37.14C14.3898 36.67 15.2498 36.2 16.1998 35.8C17.1734 33.9641 18.2657 32.1936 19.4698 30.5L18.8898 29.41C19.2878 29.5155 19.7106 29.4721 20.0789 29.288C20.4471 29.1039 20.7355 28.7917 20.8898 28.41C21.2898 27.8 21.6298 27.09 22.6198 27.15L21.9498 26.42C22.1898 26.12 22.5998 26.58 22.7798 26.64C23.3698 25.99 23.9298 25.3 24.5298 24.64C25.0969 23.9413 25.7011 23.2737 26.3398 22.64C27.5084 21.3828 29.0271 20.5049 30.6998 20.12C31.2998 20.52 31.8998 19.74 32.4398 20.22C32.5251 19.6418 32.7824 19.1027 33.1784 18.6728C33.5743 18.243 34.0906 17.9423 34.6598 17.81V18C34.7698 17.86 34.8898 17.75 35.0098 17.62C35.0692 17.6939 35.1134 17.7789 35.1398 17.87C35.1434 17.7744 35.1666 17.6806 35.2079 17.5943C35.2492 17.508 35.3077 17.4311 35.3798 17.3683C35.452 17.3055 35.5362 17.2582 35.6274 17.2293C35.7185 17.2003 35.8147 17.1903 35.9098 17.2C36.2698 17.2 36.9098 17.25 36.9098 17.45V17.55C37.0998 17.55 37.2598 17.06 37.6998 16.91C37.7925 16.8691 37.8953 16.8568 37.9951 16.8746C38.0948 16.8924 38.187 16.9396 38.2598 17.01C38.2972 17.0456 38.3258 17.0894 38.3431 17.1381C38.3605 17.1867 38.3662 17.2387 38.3598 17.29C38.5312 17.6057 38.6622 17.9416 38.7498 18.29C38.5698 19.36 39.0898 19.82 39.8998 20.69C40.3424 21.0406 40.7089 21.4777 40.9771 21.9745C41.2453 22.4714 41.4095 23.0176 41.4598 23.58C40.8698 24.41 43.7398 27.82 44.3198 28Z" fill="#020202"/>
<path d="M48.4902 33.24C48.1002 33.41 48.2602 33.36 48.4902 33.24V33.24Z" fill="#020202"/>
<path d="M54.04 19.18L54.05 19.21L54.5 18.8L54.04 19.18Z" fill="#020202"/>
<path d="M57.5601 24.8799C57.5601 24.5499 57.4401 24.5899 57.3101 24.6999C57.3221 24.7556 57.3543 24.8047 57.4005 24.838C57.4466 24.8712 57.5035 24.8862 57.5601 24.8799Z" fill="#020202"/>
<path d="M50.1299 34.92C50.1299 35.06 50.3599 34.92 50.5899 34.73L50.4199 34.54C50.3599 34.64 50.1899 34.8 50.1299 34.92Z" fill="#020202"/>
<path d="M55.1001 32.07L55.4301 31.97C55.3713 31.9534 55.309 31.954 55.2505 31.9718C55.192 31.9895 55.1398 32.0236 55.1001 32.07Z" fill="#020202"/>
<path d="M32.9399 42.83C37.2532 42.83 40.7499 39.3333 40.7499 35.02C40.7499 30.7066 37.2532 27.21 32.9399 27.21C28.6265 27.21 25.1299 30.7066 25.1299 35.02C25.1299 39.3333 28.6265 42.83 32.9399 42.83Z" fill="#F7931E"/>
<path d="M40.09 34.9999C40.18 34.9999 40.37 34.9999 40.33 34.9399H40L40.09 34.9999Z" fill="#F7931E"/>
<path d="M40.6802 34.54C40.4444 34.4361 40.1812 34.4115 39.9302 34.47C40.2502 34.52 40.1202 34.55 40.5002 34.61C40.5002 34.68 40.4002 34.73 40.2802 34.73C40.3702 34.73 40.2102 34.84 40.4202 34.87C40.6302 34.9 40.6802 34.65 40.4202 34.55C40.5045 34.5243 40.5941 34.5208 40.6802 34.54Z" fill="#F7931E"/>
<path d="M37.7402 28.28V28.34C37.748 28.3208 37.748 28.2993 37.7402 28.28Z" fill="#F7931E"/>
<path d="M33.5 26.59C33.5168 26.5876 33.5321 26.5792 33.5432 26.5663C33.5542 26.5534 33.5602 26.537 33.56 26.52C33.56 26.52 33.5 26.56 33.5 26.59Z" fill="#F7931E"/>
<path d="M32.7002 26.21C32.7002 26.21 32.7102 26.18 32.7002 26.21V26.21Z" fill="#F7931E"/>
<path d="M37.7402 28.28V28.12C37.6302 28.21 37.7002 28.23 37.7402 28.28Z" fill="#F7931E"/>
<path d="M39.7798 33.74C39.8094 33.7468 39.8402 33.7468 39.8698 33.74H39.7798Z" fill="#F7931E"/>
<path d="M39.4199 29.46L39.5399 29.4L39.4199 29.46Z" fill="#F7931E"/>
<path d="M40.3798 30.73C40.3798 30.73 40.1198 30.82 40.0098 30.87C40.1198 30.87 40.1798 30.87 40.2198 30.87L40.3798 30.73Z" fill="#F7931E"/>
<path d="M38.6602 28.6L38.7202 28.52L38.6602 28.6Z" fill="#F7931E"/>
<path d="M40.8301 35.02L40.8401 35.04L41.0001 35.05L40.8301 35.02Z" fill="#F7931E"/>
<path d="M24.1699 36.91C24.3799 36.71 24.5499 37.09 24.7599 36.8C24.6599 36.85 24.2799 36.69 24.1699 36.91Z" fill="#F7931E"/>
<path d="M39.8101 33.7C39.8075 33.6835 39.8075 33.6666 39.8101 33.65C39.8101 33.65 39.8001 33.69 39.8101 33.7Z" fill="#F7931E"/>
<path d="M27.8701 27.5699L27.9701 27.6499C27.9425 27.6168 27.9085 27.5896 27.8701 27.5699Z" fill="#F7931E"/>
<path d="M27.06 28.73H26.98C26.98 28.73 27 28.72 27.06 28.73Z" fill="#F7931E"/>
<path d="M38 39.3L38.23 39.43C38.06 39.31 38.11 39.15 38 39.3Z" fill="#F7931E"/>
<path d="M28.5499 30.38L28.3999 30.46C28.456 30.4469 28.5077 30.4193 28.5499 30.38Z" fill="#F7931E"/>
<path d="M31.1001 41.4199C31.1001 41.4199 31.1201 41.3899 31.1001 41.4199V41.4199Z" fill="#F7931E"/>
<path d="M28.1001 30.84C28.0353 30.8051 27.9636 30.7846 27.8901 30.78V30.84H28.1001Z" fill="#F7931E"/>
<path d="M38.3098 38.14C38.2198 38.26 38.5798 38.39 38.7498 38.53C38.7498 38.75 38.4698 38.46 38.2798 38.42C38.2798 38.57 38.5398 38.8401 38.4698 38.9001C38.4195 38.8818 38.3747 38.8508 38.3398 38.8101C38.4998 39.0801 38.1298 39.1201 38.3398 39.4701H38.2598C38.4047 39.562 38.5418 39.6657 38.6698 39.78C38.6698 39.84 38.7498 40.04 38.5398 39.91C38.5398 39.91 38.5398 39.8101 38.4698 39.75V39.8801C38.1598 39.7101 38.4698 39.72 38.2598 39.55C38.2598 39.73 38.3298 40.07 38.1698 40.09C37.9098 39.87 38.2798 39.8 37.9498 39.71H38.1698C37.6798 39.45 38.2698 39.66 37.7598 39.37C37.5398 39.46 37.7598 39.68 37.4898 39.7701C37.5798 39.9401 37.6998 39.9601 37.7898 40.1301C37.7898 40.6101 37.0198 39.6701 37.1498 40.1301C37.2498 40.3401 37.4898 40.69 37.2098 40.62L36.9998 40.23C36.7998 40.33 37.2298 40.75 36.8798 40.69C36.8298 40.54 36.9498 40.48 36.8798 40.46C36.5798 40.3 36.8798 40.7 36.8198 40.78L36.6098 40.51C36.4398 40.67 36.3498 41.04 36.1198 41.21C36.1198 41.11 36.1198 41 35.9798 40.93C35.7598 41.2401 35.3098 41.2 34.9798 41.1V41.42C34.9798 41.42 34.8898 41.3101 34.8998 41.25C34.7498 41.17 34.8998 41.43 34.8998 41.55C34.8998 41.67 34.7598 41.41 34.7798 41.32C34.6498 41.61 34.2798 42.0101 33.9898 41.7201V41.6301C33.7998 41.5401 33.8598 42.26 33.6598 42.01V41.9501C33.2498 41.8601 32.7898 42.15 32.4998 41.67C32.4098 42.09 32.1298 41.4601 32.0398 42.0401C31.8498 41.7101 31.9298 41.6201 31.6498 41.3801C31.5698 41.3801 31.4598 41.72 31.3398 41.75L31.4098 41.4501L31.1998 41.73V41.35L31.0898 41.4001C31.1064 41.4379 31.1149 41.4788 31.1149 41.5201C31.1149 41.5613 31.1064 41.6022 31.0898 41.64C30.8998 41.74 30.7798 41.34 30.8398 41.18L30.4198 41.3C30.4698 41.19 30.5398 41.1701 30.6198 41.1101C30.3298 41.34 30.7098 40.8 30.4398 41.01C30.4159 41.0891 30.3787 41.1635 30.3298 41.23C30.3262 41.1883 30.3141 41.1478 30.2943 41.1108C30.2745 41.0739 30.2474 41.0414 30.2147 41.0152C30.182 40.9891 30.1443 40.9698 30.1039 40.9586C30.0636 40.9474 30.0214 40.9445 29.9798 40.9501L30.0998 40.7701C29.8898 40.6201 29.5798 40.6 29.3198 40.4501C29.3198 40.5901 29.1398 40.89 29.0398 40.87L29.1898 40.5801C29.0298 40.7201 29.1898 40.73 28.9598 40.87C28.8798 40.77 29.1098 40.5201 29.2198 40.4701H29.0498C29.0498 40.3901 29.1498 40.3601 29.2298 40.2701C29.0698 40.4001 29.2298 39.8701 28.9698 40.1101L29.0198 40.03C28.7898 39.87 28.6298 39.8401 28.4398 39.7001C28.2398 39.9001 28.2198 39.7901 27.9998 39.9001C27.9398 39.7001 27.9998 39.4 27.7998 39.26C27.5998 39.12 27.5898 39.38 27.4098 39.43C27.5998 39.26 27.4098 39.1001 27.6698 39.0801C27.4996 38.9067 27.2953 38.7705 27.0698 38.68C26.9998 38.7701 26.9798 38.8301 26.8998 38.8601C26.8198 38.89 26.8998 38.68 27.0298 38.62C26.4698 38.47 27.2798 37.53 26.6898 37.5L26.3198 37.3101C26.3198 37.1601 26.5298 37.3101 26.6398 37.18C26.1098 37.01 26.5598 36.6701 26.2098 36.4901C26.9098 36.1501 26.0198 35.7701 26.4998 35.43H26.3198C26.1398 35.37 26.4198 35.34 26.4598 35.28C26.3198 35.28 26.2998 35.36 26.2098 35.28C25.9498 34.65 26.4998 34.0101 26.7898 33.4901C26.8898 33.3001 25.9298 33.13 26.4098 32.96L26.7098 33.14C26.6665 33.0247 26.6494 32.9011 26.6598 32.7783C26.6702 32.6555 26.7078 32.5365 26.7698 32.43C26.9126 32.23 26.9767 31.9844 26.9498 31.74C26.9998 31.8 27.0898 31.85 27.0698 31.89C27.3198 31.89 27.2598 31.6 27.0698 31.49C27.1298 31.49 27.2298 31.57 27.3398 31.58C27.4498 31.59 27.1998 31.21 27.4298 31.3C27.4298 31.3 27.4298 31.36 27.4798 31.39C27.5298 31.42 27.6798 31.18 27.4198 31.06C27.6298 31.01 27.5198 30.72 27.7298 30.72C27.5598 30.45 28.0398 30.6001 27.7298 30.2901C28.0598 30.6101 28.1898 30.2901 28.1298 30.1C28.1998 30.22 28.2998 30.1 28.3998 30.31C28.4798 30.23 28.5098 30.09 28.3398 29.93C28.8398 30.1901 28.4298 29.3001 28.9598 29.7701C29.084 29.3921 29.2966 29.0493 29.5798 28.7701C29.7698 29.16 29.2698 28.99 29.5198 29.4C29.6798 29.07 29.6998 28.6701 30.0298 28.6101C30.1298 28.6101 30.0298 28.81 30.0298 28.89C30.2498 28.59 30.6098 28.7 30.7998 28.39C30.8136 28.4323 30.8136 28.4778 30.7998 28.5201C30.8498 28.5201 30.9398 28.5201 30.8798 28.3601V28.43C30.6998 28.17 30.9398 27.7701 30.8798 27.6201C30.8798 28.2101 31.2098 27.6901 31.2198 28.4501C31.2536 28.3598 31.2536 28.2603 31.2198 28.17C31.2798 28.17 31.3198 28.2701 31.2998 28.4401C31.4698 28.2801 31.3598 28.09 31.5498 28.06C31.5564 28.1466 31.5564 28.2335 31.5498 28.32C31.6098 28.12 31.6698 27.91 31.8498 27.97C31.8498 28.03 31.8498 28.1101 31.8498 28.1101C32.0998 28.0301 32.2698 27.55 32.5998 27.72C32.5198 28.16 32.7098 27.86 32.7298 28.23L32.8898 28.1201L32.9998 28C33.1398 28 33.2798 27.75 33.3998 27.88L33.2898 28.0301L33.5598 27.97L33.4198 27.82C33.5798 27.64 33.4198 27.35 33.6298 27.46C33.6298 27.46 33.7898 27.46 33.8398 27.71C33.9298 27.6 34.0198 27.49 34.1198 27.6C34.2198 27.71 34.0398 28 34.0398 28.09C34.1598 27.8 34.3898 28.09 34.5398 27.75C34.4917 27.8437 34.4612 27.9454 34.4498 28.05L34.5598 27.82C34.5598 27.92 34.5598 27.9601 34.5598 28.1101C34.7398 28.2101 34.5598 27.63 34.7898 27.89C34.7898 27.89 34.7898 27.94 34.7198 27.97C34.9298 28.13 35.2298 27.97 35.3998 28.13C35.3398 28.51 35.1898 28.13 35.1598 28.48C35.4598 28.48 35.9398 28.28 36.1598 28.48V28.42C36.4298 27.97 36.2598 28.7501 36.5098 28.6C36.4598 28.6 36.3298 28.8301 36.3598 28.7901C36.4898 28.9701 36.7898 28.89 37.1598 28.93L36.9998 29C36.9998 29.18 37.2198 29.25 37.2898 29.38C37.4098 29.3 37.4498 29.38 37.5398 29.18C37.4698 29.6 37.6598 29.6601 37.8898 29.7001C38.1198 29.7401 38.3498 29.79 38.2398 30.15C38.2398 30.15 38.0798 30.15 38.1098 30.15L38.4098 30.3C38.5698 30.13 38.4898 30.18 38.5798 30.01C38.6293 29.979 38.6865 29.9625 38.7448 29.9625C38.8032 29.9625 38.8604 29.979 38.9098 30.01C38.6898 30.01 38.6298 30.25 38.5598 30.38C38.5598 30.33 38.6798 30.29 38.7298 30.24C38.5098 30.63 39.1098 29.97 39.0398 30.34L38.9398 30.4C39.0398 30.4 39.2198 30.4 39.2498 30.5C39.0598 30.69 39.0898 30.5001 38.9098 30.6201C38.9998 30.7101 39.4898 30.54 39.3298 30.8C39.2398 30.8 39.1998 30.72 39.0998 30.72C38.9198 31 38.9798 30.97 38.9898 31.08V31.34V31.25C39.6698 31.03 39.2798 31.4601 39.7698 31.4501C39.2898 31.4501 39.5298 31.53 39.2598 31.66C39.2098 31.75 39.1598 31.86 39.0698 31.88C39.3298 31.88 38.9698 32.1101 39.3498 32.0801C39.2598 32.0801 39.3498 32.18 39.1498 32.26C39.2798 32.34 39.2898 32.1701 39.4098 32.1301C39.8098 32.1901 39.1998 32.71 39.7298 32.82C39.9798 33 40.2998 32.97 40.5298 33.17C40.3998 33.29 40.1698 33.17 40.1698 33.17C40.0598 33.33 40.1198 33.4201 40.2498 33.5201C40.1558 33.5215 40.0647 33.553 39.9898 33.6101C39.9898 33.7001 40.3498 33.6101 40.2298 33.7701C40.0967 33.7804 39.963 33.7804 39.8298 33.7701C39.9298 33.8601 40.1298 33.9501 40.2398 34.0601C40.0798 34.1101 39.9698 34.0601 39.8598 34C39.9083 34.0869 39.9757 34.1617 40.0571 34.2188C40.1385 34.276 40.2317 34.314 40.3298 34.3301L40.4198 34.23C40.4198 34.23 40.1898 34.23 40.1398 34.23C39.9098 34.14 40.2098 34.0601 40.2998 34.0401L40.3798 34.12C40.9298 33.96 40.2298 33.7801 40.2398 33.6101H40.6598L40.2898 33.4901C40.3898 33.4301 40.6098 33.36 40.6898 33.43C40.8698 33.26 40.5198 33.35 40.6898 33.19C40.7005 33.1839 40.7126 33.1807 40.7248 33.1807C40.7371 33.1807 40.7492 33.1839 40.7598 33.19L40.6098 33.09C40.6998 33.09 40.8898 33 40.8498 33.09C41.0198 32.79 40.4498 32.8 40.7298 32.62C40.4998 32.35 40.4298 32.6701 40.0098 32.5601L40.6598 32.16L40.3598 32.23C40.3598 32.23 40.3598 32.12 40.4798 32.09C40.2398 32.09 40.3598 32.16 40.1498 32.16C40.3598 31.9 39.8698 31.81 40.2898 31.58C40.0498 31.58 40.1898 31.79 39.9698 31.71C40.4198 31.44 39.7998 31.57 39.9698 31.33C40.2298 31.25 40.1698 31.4401 40.3098 31.2001C39.8698 31.3301 40.3098 30.88 40.1198 30.81C39.7998 30.99 39.8398 30.6501 39.6298 30.5301C39.7498 30.4701 39.5598 30.09 39.5398 29.84H39.5898C39.2698 30.03 39.2098 29.84 39.0498 29.76C39.1003 29.7072 39.1608 29.665 39.2277 29.6358C39.2947 29.6066 39.3668 29.5911 39.4398 29.59L39.3398 29.48C39.2964 29.502 39.2485 29.5135 39.1998 29.5135C39.1512 29.5135 39.1032 29.502 39.0598 29.48L39.2898 29.33C39.1398 29.19 38.7998 29.26 38.7498 28.96C38.5598 29.14 38.3798 29.59 38.0898 29.55C38.1798 29.44 38.3398 29.2701 38.4198 29.2701C38.4998 29.2701 38.2798 29.2701 38.2898 29.2701L38.5298 29.17C38.5298 29.02 38.3498 29.27 38.2998 29.17C38.4398 29.03 38.2998 29.02 38.4598 28.92C38.6198 28.82 38.4598 29.03 38.5398 29C38.5111 28.9373 38.4962 28.8691 38.4962 28.8C38.4962 28.731 38.5111 28.6628 38.5398 28.6C38.4698 28.69 38.3598 28.8001 38.2898 28.7701C38.2198 28.7401 38.3998 28.55 38.3798 28.39C38.2598 28.46 38.2498 28.28 38.0598 28.5C38.0598 28.5 38.0598 28.3501 38.1298 28.2801C37.9698 28.2801 37.7298 28.0301 37.6398 28.35C37.2298 28.35 37.1798 27.8501 36.8398 27.7901V27.7001C36.6198 27.7001 36.4298 27.5701 36.2198 27.7001C36.2198 27.7001 36.2198 27.48 36.2198 27.38C36.0498 27.38 36.0098 27.47 35.8698 27.25C36.0698 27.14 35.8698 27.0901 36.0598 27.1901C35.9098 27.0401 35.9198 26.88 35.6298 27.06C35.7798 26.85 35.6298 26.71 35.4798 26.75L35.5498 26.97C35.4517 26.9651 35.3575 26.9302 35.2798 26.8701L35.4298 26.57C35.1298 26.07 34.5598 27.04 34.4298 26.33C34.2798 26.54 34.6198 26.5201 34.4298 26.7801C34.2698 26.7101 34.1498 26.2101 34.0898 26.2001C33.8498 25.9801 33.7898 26.64 33.5398 26.49C33.5398 26.61 33.5398 26.9301 33.3698 27.0301C33.1998 26.9801 33.1798 26.52 33.3098 26.43C33.4398 26.34 33.3698 26.43 33.3698 26.5C33.3698 26.57 33.5198 26.4101 33.4498 26.2801V26.4C33.3698 26.27 33.1098 26.27 33.1798 26.08C33.0298 26.19 33.1098 26.27 33.1798 26.34C32.9498 26.16 32.8098 26.34 32.5598 26.21C32.5598 26.27 32.6398 26.41 32.5598 26.41C32.1998 26.28 32.4098 26.64 32.1798 26.71C32.0298 26.54 32.1798 26.2801 31.9698 26.4401C31.8098 26.3301 31.9098 26.1301 31.9698 26.0301C31.7598 26.2601 31.5198 25.94 31.3798 25.91L31.4898 25.8C31.4384 25.8491 31.3708 25.8776 31.2998 25.88L31.4098 26.1C31.3298 26.1 31.2698 26.1 31.2598 25.98C31.2598 26.14 31.3798 26.36 31.2598 26.59C31.1498 26.49 31.0098 26.76 30.9198 26.46C31.2298 26.51 30.8198 26.15 31.0698 26.06C31.0433 26.0781 31.0119 26.0878 30.9798 26.0878C30.9477 26.0878 30.9164 26.0781 30.8898 26.06C30.8808 26.0468 30.876 26.0311 30.876 26.015C30.876 25.999 30.8808 25.9833 30.8898 25.97C30.5398 25.76 30.8298 26.35 30.5498 26.41C30.5498 26.23 30.3998 26.1 30.3598 26.15C30.4798 26.15 30.4898 26.42 30.4198 26.58C30.1998 26.49 30.2498 26.73 30.1598 26.74H30.2798C30.2798 26.92 30.1998 26.9201 30.0998 27.0201C30.0498 26.8901 30.1798 26.89 30.0998 26.85C30.0998 27.1901 29.6998 26.65 29.5798 26.92C29.4498 26.84 29.4498 26.61 29.3398 26.57C29.2098 26.86 29.0098 26.44 28.8598 26.72C29.0198 26.91 29.0098 26.85 28.9598 27.13L29.2398 26.81L29.1598 27.23C29.2598 27.23 29.3198 26.98 29.3998 27C29.3998 27.22 29.3998 27.17 29.4798 27.32C29.1998 27.06 29.2898 27.64 29.0398 27.5L28.9998 27.05C28.6098 26.94 28.6898 27.5401 28.3198 27.6H28.4698C28.5498 27.83 28.2998 27.74 28.2498 27.88C28.1759 27.7611 28.0679 27.667 27.9398 27.6101C28.0298 27.7301 27.7098 27.76 27.9398 28.1L27.6598 28C27.3598 28.1 27.7398 28.63 27.5098 28.76C27.4298 28.54 27.2398 28.5201 27.2798 28.2801C27.2098 28.3401 27.1198 28.37 27.2098 28.48C27.0898 28.43 27.2098 28.85 27.0098 28.7701C27.0098 28.86 27.1798 29.02 27.0898 29.07C27.055 29.0537 27.0243 29.0298 26.9998 29C27.0598 29.07 26.9998 29.21 27.1998 29.3C26.5798 29.08 26.7098 29.87 26.1998 29.74C26.1343 29.9406 26.0506 30.1347 25.9498 30.32C25.9498 30.32 25.8698 30.26 25.9498 30.25C25.6598 30.36 26.3498 30.69 26.0298 30.81C25.6798 30.81 25.9598 30.5901 25.8098 30.6101C25.2398 30.3101 25.6998 30.9401 25.2898 30.93V30.8701C25.0298 30.8701 25.3498 31.31 25.2098 31.5C25.1801 31.495 25.1496 31.495 25.1198 31.5C25.29 31.746 25.3744 32.0413 25.3598 32.34C25.1398 32.19 25.2698 32.2001 25.0098 32.1501C25.0098 32.2601 25.4098 32.2601 25.4098 32.4701C25.2192 32.5295 25.0178 32.5466 24.8198 32.5201C24.8198 32.4601 24.8198 32.3901 24.8198 32.3301C24.4398 32.3301 24.7498 32.58 24.6698 32.66L24.5198 32.6C24.5198 32.91 24.8698 33.0101 24.7698 33.3101H24.8898C25.2298 33.5501 24.6498 33.4101 24.8898 33.6301H24.4898C24.6352 33.8334 24.7592 34.0512 24.8598 34.28C24.5698 34.14 24.4698 33.8801 24.3198 33.7001C24.3198 33.8201 24.3198 34.1 24.4698 34.18C24.4698 34.18 24.3498 34.0601 24.4198 34.0201C24.6998 34.2001 24.8498 34.38 24.8298 34.6C24.0698 34.52 24.5998 35.17 24.0398 35.35C24.3298 35.75 23.9698 36.1901 24.1098 36.68C24.6698 36.4001 24.1098 36.8201 24.7398 36.68C24.7998 36.7801 24.7998 36.82 24.7398 36.84L24.4698 37.25C24.3198 37.37 24.3098 37.18 24.1798 37.25C24.1798 37.51 23.9598 37.4201 23.8398 37.6301C24.0398 37.5401 24.1598 37.63 24.1198 37.8L24.3398 37.5201C24.7298 37.76 23.9398 37.97 24.3398 38.21H24.1198C24.2898 38.35 24.3598 38.88 24.8898 38.82C24.8398 38.88 24.7098 38.9901 24.6298 38.93C24.7498 39.38 25.5398 39.54 25.4598 39.93L25.3198 39.98C25.3998 39.98 25.6198 39.9801 25.5598 40.1101C25.4998 40.2401 25.4198 40.1701 25.4298 40.2001C25.4398 40.2301 25.7698 40.2001 25.7698 40.3601H25.5798C25.6798 40.8301 26.2998 40.63 26.5798 40.8C26.4684 40.8996 26.3946 41.0344 26.3709 41.1819C26.3472 41.3295 26.3751 41.4807 26.4498 41.6101C26.7898 42 27.3298 41.92 27.7898 42.0401C27.7298 42.6101 28.4698 42.74 28.7898 43.18C28.7898 43.08 28.9598 42.88 29.0498 42.87C29.1398 42.86 29.4398 42.7201 29.2598 43.0801C29.1698 43.4701 29.4198 43.48 29.5798 43.55L29.7998 43.07C29.8698 43.5 30.1798 43.55 30.4498 43.55C30.7198 43.55 30.9798 43.5501 31.0198 43.8801C31.1498 43.7801 31.2898 43.8 31.4098 43.69L31.3498 43.9701C31.6026 44.0992 31.8877 44.1514 32.1698 44.12L32.0698 44.32C32.2898 44.32 32.3998 43.52 32.5798 43.51V43.94C32.9298 43.94 33.3298 44.3 33.6698 43.94C33.6698 44 33.6698 44.12 33.6098 44.14C33.7798 44.14 34.3198 44.34 34.1798 43.78C34.2398 44.15 34.5598 43.7801 34.7098 43.5601V43.84C34.7998 43.4501 34.7798 43.36 34.9698 43.21C35.0298 43.21 35.0698 43.41 34.9698 43.3601C35.1798 43.4601 35.0298 43.07 35.2798 43.16V43.35C35.4598 43.35 35.4198 43.24 35.4498 43.01C35.4798 42.78 35.7898 43.01 35.8998 43.19C35.8998 43.04 35.8998 42.81 36.0098 42.84C36.0228 42.8701 36.0294 42.9024 36.0294 42.9351C36.0294 42.9677 36.0228 43 36.0098 43.03C36.3698 43.11 36.2898 42.5501 36.5898 42.7201C36.6121 42.7709 36.6464 42.8155 36.6898 42.85C36.5661 42.9207 36.4306 42.9681 36.2898 42.9901C36.3898 43.2301 36.5898 43.18 36.5898 43.57C36.6698 43.32 36.7298 42.82 36.9598 42.84L37.0198 42.91C37.0698 42.91 37.0998 42.91 37.1098 42.82C37.1685 42.8379 37.2312 42.8379 37.2898 42.82C37.4198 42.99 37.5498 42.82 37.6398 42.75C37.4898 42.51 37.6398 42.49 37.3898 42.35C37.3898 42.35 37.3898 42.35 37.3898 42.43L37.1898 42.57C37.1898 42.41 37.1898 42.26 37.3598 42.34L37.2398 41.89C37.5598 42.16 37.8898 42.2 38.0598 42.37C38.2098 42.05 38.5898 41.86 38.3798 41.37C38.3798 41.26 38.5498 41.42 38.6298 41.46C38.7098 41.5 38.6298 41.57 38.6298 41.64C38.6298 41.42 38.9698 41.2601 38.7398 40.9701C39.0098 40.9701 38.8898 41.3 39.0598 41.05L39.1098 41.16C39.5198 41.16 39.5098 40.8001 39.5098 40.4901C39.5098 40.1801 39.5098 39.8701 39.9698 39.8301C39.9216 39.8485 39.8681 39.8485 39.8198 39.8301C40.5098 39.4001 40.2998 38.46 41.0098 38C41.1798 37.84 41.0098 37.7401 40.8398 37.5801L41.1398 37.6301L40.8598 37.3301C40.6698 37.0001 41.7298 37.01 41.3098 36.53H41.0998C41.1598 36.4 41.0398 36.1001 41.2698 36.1501C41.2698 36.1501 41.0698 36.0801 41.1798 36.0401H41.3398C41.2671 35.9186 41.1869 35.8017 41.0998 35.69C41.2298 35.45 41.7198 35.78 41.7698 35.39C41.7198 35.24 41.3298 34.98 41.2198 35.03C41.1098 35.08 41.1098 35.17 40.9598 35.17L40.8398 35C40.4083 34.9074 39.9583 34.9602 39.5598 35.1501L39.8398 35.34H39.6098V35.19C39.3898 35.26 39.6098 35.32 39.6998 35.39C39.6137 35.3869 39.5281 35.404 39.4498 35.44L39.8798 35.6501C39.6998 35.6501 39.5298 35.5401 39.4098 35.6501C39.5998 35.7501 39.8298 35.6501 39.9398 35.7701C39.7198 35.8301 39.5498 35.7701 39.7098 35.9001C39.6225 35.9052 39.5366 35.8766 39.4698 35.82C39.5998 35.92 39.4698 36.05 39.7298 36.14C39.4698 36.14 39.7298 36.45 39.3098 36.35C39.4098 36.35 39.6098 36.57 39.6098 36.66C39.1398 36.39 39.5098 36.94 38.9698 36.75C39.3998 36.99 39.0398 37.16 39.2298 37.44C39.2298 37.44 39.1298 37.3701 39.1598 37.3601C39.1898 37.35 38.9398 37.4201 38.8398 37.4501C39.1998 37.6101 39.1998 37.8001 39.3798 37.9901C38.9798 37.9901 38.9998 37.72 38.6498 37.6101C38.9398 37.7401 38.8398 37.9501 39.0998 38.0201C38.9454 38.034 38.79 38.0063 38.6498 37.94C39.0698 38.18 38.6498 38.06 38.9098 38.28C38.6198 38.28 38.4898 38.08 38.5398 38.28C38.3798 38.35 38.3098 38.14 38.3098 38.14ZM36.1898 41.28H36.2598H36.1898ZM35.8898 41.43L36.0298 41.3801C36.0798 41.4601 36.1198 41.56 36.0798 41.57C36.0398 41.58 35.9998 41.49 35.8798 41.44L35.8898 41.43ZM37.5098 42.78C37.5098 42.85 37.4198 42.78 37.3898 42.78L37.4698 42.69C37.4823 42.7226 37.4923 42.756 37.4998 42.7901L37.5098 42.78Z" fill="#F7931E"/>
<path d="M37.4098 42.41H37.3398V42.5L37.4098 42.41Z" fill="#F7931E"/>
<path d="M31.47 41.37L31.46 41.44L31.5 41.39L31.47 41.37Z" fill="#F7931E"/>
<path d="M38.5701 30.4301C38.5658 30.4532 38.5658 30.4769 38.5701 30.5001V30.4301Z" fill="#F7931E"/>
<path d="M39 31.13V31.28C39.0088 31.2304 39.0088 31.1796 39 31.13Z" fill="#F7931E"/>
<path d="M30.9999 28.58C30.9299 28.66 30.9999 28.63 30.9999 28.58V28.58Z" fill="#F7931E"/>
<path d="M33.7999 27.6801C33.7679 27.7241 33.731 27.7643 33.6899 27.8001C33.7399 27.8301 33.7799 27.8401 33.7999 27.6801Z" fill="#F7931E"/>
<path d="M28.5698 30.37L28.5598 30.36L28.5498 30.38L28.5698 30.37Z" fill="#F7931E"/>
<path d="M33.5498 27.79C33.5582 27.8004 33.5689 27.8089 33.581 27.8146C33.5931 27.8204 33.6064 27.8234 33.6198 27.8234C33.6332 27.8234 33.6465 27.8204 33.6586 27.8146C33.6707 27.8089 33.6814 27.8004 33.6898 27.79C33.6898 27.79 33.5898 27.75 33.5498 27.79Z" fill="#F7931E"/>
<path d="M40 34.4L39.93 34.34C39.93 34.34 39.9 34.39 40 34.4Z" fill="#F7931E"/>
<path d="M39.7398 33.23C39.7398 33.29 39.5698 33.42 39.6498 33.49H39.7298C39.5698 33.48 39.9198 33.25 39.7398 33.23Z" fill="#F7931E"/>
<path d="M40.5698 31.77V32C40.6598 31.92 40.7698 31.81 40.8398 31.91C40.9998 31.52 40.6498 32.08 40.5698 31.77Z" fill="#F7931E"/>
<path d="M40.3799 31.0001C40.4799 31.1001 40.5199 30.9201 40.5799 30.9001C40.4499 30.8801 40.4199 30.8801 40.3799 31.0001Z" fill="#F7931E"/>
<path d="M36.3901 27.3L36.5101 27.07C36.3901 27.06 36.4601 27.17 36.3901 27.3Z" fill="#F7931E"/>
<path d="M35 28.19V28.37L35.11 28.16L35 28.19Z" fill="#F7931E"/>
<path d="M34.8998 26.28L34.9498 26.26L34.7598 26.31L34.8998 26.28Z" fill="#F7931E"/>
<path d="M26.0898 29.39L26.3498 29.57C26.3598 29.48 26.0998 29.24 26.0898 29.39Z" fill="#F7931E"/>
<path d="M24.5901 33.23C24.4201 33.23 24.3001 33.34 24.4501 33.44C24.4801 33.35 24.6201 33.28 24.5901 33.23Z" fill="#F7931E"/>
<path d="M29.8099 43.51L29.6899 43.57L29.8799 43.55L29.8099 43.51Z" fill="#F7931E"/>
</g>
<path d="M78.62 15.54V17.4H74.74V30H72.8V17.4H69.02V15.54H78.62ZM88.1678 26.2H82.6078L81.0678 30H79.1478L85.4678 14.94H85.5878L91.9078 30H89.6678L88.1678 26.2ZM87.5078 24.52L85.4478 19.24L83.3078 24.52H87.5078ZM96.5513 15.54V30H94.6113V15.54H96.5513ZM108.665 30L105.265 24.66C105.158 24.6733 104.998 24.68 104.785 24.68H102.645V30H100.705V15.54H104.565C105.552 15.54 106.432 15.7133 107.205 16.06C107.978 16.4067 108.585 16.92 109.025 17.6C109.465 18.2667 109.685 19.0733 109.685 20.02C109.685 20.9133 109.485 21.7333 109.085 22.48C108.698 23.2267 108.098 23.7933 107.285 24.18L110.925 30H108.665ZM104.745 22.8C105.785 22.8 106.532 22.5267 106.985 21.98C107.452 21.4333 107.685 20.8067 107.685 20.1C107.685 19.6733 107.585 19.2533 107.385 18.84C107.198 18.4267 106.892 18.0867 106.465 17.82C106.052 17.54 105.525 17.4 104.885 17.4H102.645V22.8H104.745ZM112.696 22.78C112.696 21.46 113.029 20.2333 113.696 19.1C114.362 17.9667 115.256 17.0667 116.376 16.4C117.509 15.72 118.742 15.38 120.076 15.38C121.396 15.38 122.622 15.72 123.756 16.4C124.889 17.0667 125.789 17.9667 126.456 19.1C127.136 20.2333 127.476 21.46 127.476 22.78C127.476 24.1133 127.142 25.3467 126.476 26.48C125.809 27.6133 124.902 28.5133 123.756 29.18C122.622 29.8333 121.396 30.16 120.076 30.16C118.742 30.16 117.509 29.8333 116.376 29.18C115.242 28.5267 114.342 27.64 113.676 26.52C113.022 25.3867 112.696 24.14 112.696 22.78ZM114.696 22.8C114.696 23.7867 114.936 24.7 115.416 25.54C115.896 26.38 116.549 27.0467 117.376 27.54C118.216 28.0333 119.129 28.28 120.116 28.28C121.102 28.28 122.002 28.04 122.816 27.56C123.642 27.0667 124.289 26.4 124.756 25.56C125.236 24.7067 125.476 23.78 125.476 22.78C125.476 21.78 125.236 20.8533 124.756 20C124.276 19.1467 123.622 18.4733 122.796 17.98C121.969 17.4867 121.062 17.24 120.076 17.24C119.089 17.24 118.182 17.4933 117.356 18C116.529 18.4933 115.876 19.1667 115.396 20.02C114.929 20.8733 114.696 21.8 114.696 22.8Z" fill="black"/>
<defs>
<clipPath id="clip0">
<rect width="57.56" height="44.3" fill="white"/>
</clipPath>
</defs>
</svg>
